<svg width="41" height="28" viewBox="0 0 41 28" fill="none" xmlns="http://www.w3.org/2000/svg">
<path d="M28.2158 28C29.5067 28 30.5532 26.8787 30.5532 25.4956C30.5532 24.1125 29.5067 22.9912 28.2158 22.9912C26.9249 22.9912 25.8784 24.1125 25.8784 25.4956C25.8784 26.8787 26.9249 28 28.2158 28Z" fill="white"/>
<path d="M14.8591 28C16.1501 28 17.1965 26.8787 17.1965 25.4956C17.1965 24.1125 16.1501 22.9912 14.8591 22.9912C13.5682 22.9912 12.5217 24.1125 12.5217 25.4956C12.5217 26.8787 13.5682 28 14.8591 28Z" fill="white"/>
<path d="M12.2184 18.4333C11.3366 18.4333 10.5588 17.8558 10.3038 17.0116L7.4571 7.58705C7.06925 6.30305 8.03036 5.00874 9.37166 5.00874H37.0333C38.4701 5.00874 39.4381 6.47852 38.8708 7.79848L34.8201 17.2231C34.5045 17.9574 33.7819 18.4333 32.9826 18.4333H12.2184ZM5.49567 0C6.38844 0 7.17309 0.5917 7.41858 1.45005L12.3191 18.5849C12.5646 19.4433 13.3493 20.035 14.242 20.035H31.2546C32.4477 20.035 33.2557 21.2502 32.7942 22.3504C32.534 22.9706 31.9271 23.3741 31.2546 23.3741H11.7643C10.8739 23.3741 10.0908 22.7855 9.84322 21.9303L4.87909 4.783C4.63149 3.92775 3.84834 3.33916 2.95797 3.33916H2.4013C1.70346 3.33916 1.07924 2.90515 0.836226 2.251C0.431031 1.1603 1.23776 0 2.4013 0H5.49567Z" fill="white"/>
</svg>
