<svg class='deleteAllIcon' width="32" height="32" viewBox="0 0 32 32" fill="none" xmlns="http://www.w3.org/2000/svg">
<g clip-path="url(#clip0)">
<path d="M28.0187 10.5009L23.4788 7.87985L23.9554 7.05442C24.745 5.68678 24.2764 3.93804 22.9088 3.14844L19.6071 1.24219C18.2394 0.452583 16.4907 0.921156 15.7011 2.28879L15.2245 3.11422L10.6847 0.493128C9.54501 -0.164856 8.08767 0.225637 7.42969 1.3653L6.47656 3.01616C6.21335 3.47205 6.36953 4.05494 6.82543 4.31815L26.6358 15.7557C27.0917 16.0189 27.6745 15.8627 27.9378 15.4068L28.8909 13.7559C29.5489 12.6163 29.1584 11.1589 28.0187 10.5009ZM17.352 3.24192C17.6147 2.7869 18.1989 2.63034 18.654 2.89305L21.9557 4.7993C22.4107 5.062 22.5672 5.64627 22.3045 6.10129L21.828 6.92672L16.8754 4.06735L17.352 3.24192Z" fill="white"/>
<path d="M5.3076 11.6016C5.13753 11.6016 5.00201 11.7437 5.01011 11.9136L5.79644 28.4171C5.86911 29.9445 7.12367 31.1406 8.65224 31.1406H23.1266C24.6552 31.1406 25.9098 29.9445 25.9824 28.4171L26.7688 11.9136C26.7769 11.7437 26.6413 11.6016 26.4713 11.6016H5.3076ZM19.7019 13.9844C19.7019 13.4578 20.1285 13.0312 20.6551 13.0312C21.1817 13.0312 21.6082 13.4578 21.6082 13.9844V26.375C21.6082 26.9016 21.1817 27.3281 20.6551 27.3281C20.1285 27.3281 19.7019 26.9016 19.7019 26.375V13.9844ZM14.9363 13.9844C14.9363 13.4578 15.3628 13.0312 15.8894 13.0312C16.416 13.0312 16.8426 13.4578 16.8426 13.9844V26.375C16.8426 26.9016 16.416 27.3281 15.8894 27.3281C15.3628 27.3281 14.9363 26.9016 14.9363 26.375V13.9844ZM10.1707 13.9844C10.1707 13.4578 10.5972 13.0312 11.1238 13.0312C11.6504 13.0312 12.0769 13.4578 12.0769 13.9844V26.375C12.0769 26.9016 11.6504 27.3281 11.1238 27.3281C10.5972 27.3281 10.1707 26.9016 10.1707 26.375V13.9844Z" fill="white"/>
<g clip-path="url(#clip1)">
<path d="M11.7837 7.49902L10.0292 8.51198L10.161 8.74032C10.1853 8.7824 10.1709 8.83609 10.1289 8.86038C10.0868 8.88467 10.0331 8.87029 10.0088 8.82821L9.87696 8.59987L9.33783 8.91113C9.29576 8.93542 9.28137 8.98912 9.30566 9.03119L9.56934 9.48789C9.59363 9.52996 9.64733 9.54435 9.6894 9.52006C9.81531 9.44736 9.97688 9.49065 10.0496 9.61657C10.1223 9.74248 10.079 9.90405 9.95307 9.97675C9.911 10.001 9.89661 10.0547 9.9209 10.0968L10.1846 10.5535C10.2089 10.5956 10.2626 10.61 10.3046 10.5857L10.8374 10.2781L10.7056 10.0497C10.6813 10.0076 10.6957 9.95394 10.7378 9.92965C10.7798 9.90536 10.8335 9.91975 10.8578 9.96182L10.9897 10.1902L12.7505 9.17356C12.7925 9.14927 12.8069 9.09558 12.7826 9.0535L11.9037 7.53119C11.8795 7.48912 11.8258 7.47473 11.7837 7.49902ZM10.6821 9.65736C10.7063 9.69943 10.692 9.75313 10.6499 9.77742C10.6078 9.80171 10.5541 9.78732 10.5298 9.74525L10.4419 9.59302C10.4176 9.55095 10.432 9.49725 10.4741 9.47296C10.5162 9.44867 10.5699 9.46306 10.5942 9.50513L10.6821 9.65736ZM10.4184 9.20066C10.4427 9.24274 10.4283 9.29644 10.3862 9.32073C10.3441 9.34502 10.2904 9.33063 10.2662 9.28856L10.1783 9.13632C10.154 9.09425 10.1684 9.04055 10.2104 9.01626C10.2525 8.99197 10.3062 9.00636 10.3305 9.04843L10.4184 9.20066Z" fill="#21C580"/>
<g clip-path="url(#clip2)">
<path d="M11.4969 8.68639C11.4465 8.68733 11.3966 8.6947 11.3467 8.70124C11.3178 8.70505 11.2889 8.70668 11.2601 8.70237C11.2034 8.6938 11.1818 8.6392 11.2158 8.59302C11.2254 8.57996 11.2379 8.57036 11.2511 8.56166C11.3022 8.5284 11.3578 8.50913 11.4188 8.50454C11.4491 8.5023 11.4549 8.49415 11.4487 8.46475C11.442 8.43371 11.4337 8.40308 11.4263 8.37219C11.4214 8.35146 11.4082 8.34351 11.3872 8.34571C11.3488 8.34989 11.3118 8.35835 11.2758 8.37217C11.2289 8.39039 11.2288 8.39019 11.2036 8.34704C11.1682 8.28619 11.1682 8.28619 11.1071 8.32151C11.0982 8.32662 11.0892 8.33153 11.0805 8.33684C11.0524 8.35415 11.0505 8.36196 11.0663 8.3912C11.0733 8.40431 11.0811 8.41696 11.0885 8.43015C11.1104 8.4685 11.1098 8.46802 11.0809 8.50244C11.0109 8.58575 10.991 8.67772 11.041 8.77767C11.0851 8.86621 11.1631 8.89817 11.2576 8.89968C11.3159 8.90066 11.3726 8.8883 11.4302 8.88214C11.4526 8.87965 11.475 8.87883 11.4971 8.88271C11.5622 8.89369 11.5891 8.9589 11.55 9.01204C11.5291 9.04047 11.5013 9.06056 11.4687 9.07428C11.4184 9.09552 11.3665 9.10915 11.3116 9.11161C11.2794 9.11302 11.2741 9.12063 11.2811 9.15227C11.2872 9.17959 11.2943 9.20665 11.3013 9.23371C11.3108 9.2701 11.3183 9.27568 11.3568 9.27306C11.4057 9.2695 11.452 9.25537 11.4975 9.23797C11.5331 9.22438 11.5349 9.22521 11.5548 9.25878C11.5639 9.27395 11.5728 9.28945 11.5818 9.30463C11.5932 9.32383 11.6089 9.32975 11.6291 9.31865C11.6519 9.30604 11.6746 9.29291 11.6968 9.2793C11.7151 9.26821 11.7187 9.25269 11.7079 9.23397C11.6958 9.21305 11.6846 9.19134 11.6718 9.17088C11.6584 9.15013 11.6614 9.13392 11.6787 9.11643C11.7185 9.07625 11.7442 9.02767 11.7533 8.97195C11.779 8.81759 11.6578 8.68339 11.4969 8.68639Z" fill="#FF6969"/>
</g>
</g>
<g clip-path="url(#clip3)">
<path d="M6.76024 6.91113L5.00575 5.89818L4.87392 6.12653C4.84963 6.1686 4.79593 6.18299 4.75386 6.1587C4.71179 6.13441 4.6974 6.08071 4.72169 6.03863L4.85352 5.81029L4.3144 5.49902C4.27233 5.47473 4.21863 5.48912 4.19434 5.53119L3.93066 5.98789C3.90637 6.02996 3.92076 6.08366 3.96283 6.10795C4.08875 6.18064 4.13204 6.34221 4.05934 6.46813C3.98665 6.59405 3.82508 6.63734 3.69916 6.56464C3.65709 6.54035 3.60339 6.55474 3.5791 6.59681L3.31543 7.0535C3.29114 7.09558 3.30553 7.14927 3.3476 7.17356L3.88041 7.48118L4.01224 7.25284C4.03653 7.21076 4.09023 7.19638 4.13231 7.22067C4.17438 7.24496 4.18877 7.29865 4.16448 7.34073L4.03264 7.56907L5.79344 8.58567C5.83552 8.60996 5.88922 8.59558 5.91351 8.5535L6.79241 7.03119C6.8167 6.98912 6.80231 6.93542 6.76024 6.91113ZM4.34026 7.03626C4.31597 7.07834 4.26227 7.09272 4.2202 7.06843C4.17812 7.04414 4.16374 6.99044 4.18803 6.94837L4.27592 6.79614C4.30021 6.75407 4.35391 6.73968 4.39598 6.76397C4.43805 6.78826 4.45244 6.84196 4.42815 6.88403L4.34026 7.03626ZM4.60393 6.57957C4.57964 6.62164 4.52594 6.63603 4.48387 6.61174C4.4418 6.58745 4.42741 6.53375 4.4517 6.49168L4.53959 6.33945C4.56388 6.29738 4.61758 6.28299 4.65965 6.30728C4.70172 6.33157 4.71611 6.38527 4.69182 6.42734L4.60393 6.57957Z" fill="#21C580"/>
<g clip-path="url(#clip4)">
<path d="M5.85329 6.86323C5.834 6.83356 5.79429 6.82515 5.76461 6.84446L4.883 7.41809C4.85333 7.43739 4.84493 7.47709 4.86423 7.50676C4.86993 7.51551 4.8774 7.52241 4.88586 7.5273C4.90609 7.53898 4.93199 7.53914 4.95291 7.52553L5.83452 6.95191C5.8642 6.9326 5.8726 6.8929 5.85329 6.86323Z" fill="#FF6969"/>
<path d="M5.40105 6.95946C5.46807 6.84338 5.42815 6.69442 5.31207 6.6274C5.196 6.56038 5.04704 6.6003 4.98002 6.71638C4.913 6.83246 4.95292 6.98142 5.06899 7.04844C5.18507 7.11546 5.33403 7.07554 5.40105 6.95946ZM5.13309 6.93742C5.07822 6.90575 5.05936 6.83534 5.09103 6.78047C5.12271 6.72561 5.19312 6.70674 5.24798 6.73841C5.30285 6.77009 5.32172 6.8405 5.29004 6.89537C5.25836 6.95023 5.18795 6.9691 5.13309 6.93742Z" fill="#FF6969"/>
<path d="M5.64997 7.32369C5.53389 7.25667 5.38493 7.29659 5.31791 7.41266C5.25089 7.52874 5.29081 7.6777 5.40689 7.74472C5.52297 7.81174 5.67193 7.77183 5.73895 7.65575C5.80597 7.53967 5.76605 7.39071 5.64997 7.32369ZM5.47099 7.63371C5.41612 7.60203 5.39725 7.53162 5.42893 7.47675C5.4606 7.42189 5.53101 7.40303 5.58588 7.4347C5.64074 7.46638 5.65961 7.53679 5.62794 7.59165C5.59626 7.64652 5.52585 7.66538 5.47099 7.63371Z" fill="#FF6969"/>
</g>
</g>
<g clip-path="url(#clip5)">
<path d="M1.33741 7.18652L3.0919 8.19948L3.22374 7.97113C3.24803 7.92906 3.30173 7.91467 3.3438 7.93896C3.38587 7.96325 3.40026 8.01695 3.37597 8.05902L3.24413 8.28737L3.78326 8.59863C3.82533 8.62292 3.87903 8.60853 3.90332 8.56646L4.16699 8.10977C4.19128 8.0677 4.17689 8.014 4.13482 7.98971C4.00891 7.91701 3.96561 7.75544 4.03831 7.62953C4.11101 7.50361 4.27258 7.46032 4.39849 7.53302C4.44057 7.55731 4.49426 7.54292 4.51855 7.50085L4.78223 7.04415C4.80652 7.00208 4.79213 6.94838 4.75006 6.92409L4.21725 6.61647L4.08541 6.84482C4.06112 6.88689 4.00742 6.90128 3.96535 6.87699C3.92328 6.8527 3.90889 6.799 3.93318 6.75693L4.06502 6.52858L2.30421 5.51198C2.26214 5.48769 2.20844 5.50208 2.18415 5.54415L1.30524 7.06646C1.28095 7.10853 1.29534 7.16223 1.33741 7.18652ZM3.7574 7.06139C3.78169 7.01932 3.83539 7.00493 3.87746 7.02922C3.91953 7.05351 3.93392 7.10721 3.90963 7.14928L3.82174 7.30151C3.79745 7.34359 3.74375 7.35797 3.70168 7.33368C3.65961 7.30939 3.64522 7.25569 3.66951 7.21362L3.7574 7.06139ZM3.49373 7.51809C3.51802 7.47601 3.57172 7.46163 3.61379 7.48592C3.65586 7.51021 3.67025 7.5639 3.64596 7.60598L3.55807 7.75821C3.53378 7.80028 3.48008 7.81467 3.43801 7.79038C3.39594 7.76609 3.38155 7.71239 3.40584 7.67032L3.49373 7.51809Z" fill="#21C580"/>
<g clip-path="url(#clip6)">
<path d="M2.24437 7.23443C2.26366 7.2641 2.30337 7.2725 2.33304 7.25319L3.21465 6.67957C3.24433 6.66027 3.25273 6.62057 3.23342 6.59089C3.22773 6.58214 3.22026 6.57524 3.2118 6.57036C3.19157 6.55868 3.16567 6.55852 3.14474 6.57213L2.26313 7.14575C2.23346 7.16505 2.22506 7.20475 2.24437 7.23443Z" fill="#FF6969"/>
<path d="M2.69661 7.13819C2.62959 7.25427 2.6695 7.40324 2.78558 7.47026C2.90165 7.53727 3.05062 7.49736 3.11764 7.38128C3.18465 7.2652 3.14474 7.11624 3.02866 7.04922C2.91258 6.9822 2.76362 7.02212 2.69661 7.13819ZM2.96457 7.16023C3.01943 7.19191 3.0383 7.26232 3.00662 7.31718C2.97495 7.37205 2.90453 7.39092 2.84967 7.35924C2.7948 7.32756 2.77594 7.25716 2.80762 7.20229C2.83929 7.14743 2.9097 7.12856 2.96457 7.16023Z" fill="#FF6969"/>
<path d="M2.44768 6.77396C2.56376 6.84098 2.71273 6.80107 2.77974 6.68499C2.84676 6.56892 2.80685 6.41995 2.69077 6.35293C2.57469 6.28591 2.42573 6.32583 2.35871 6.44191C2.29169 6.55799 2.3316 6.70694 2.44768 6.77396ZM2.62667 6.46395C2.68154 6.49563 2.7004 6.56604 2.66873 6.6209C2.63705 6.67576 2.56664 6.69463 2.51177 6.66295C2.45691 6.63128 2.43804 6.56087 2.46972 6.506C2.5014 6.45114 2.5718 6.43227 2.62667 6.46395Z" fill="#FF6969"/>
</g>
</g>
<g clip-path="url(#clip7)">
<path d="M9.76024 7.18652L8.00575 8.19948L7.87392 7.97113C7.84963 7.92906 7.79593 7.91467 7.75386 7.93896C7.71179 7.96325 7.6974 8.01695 7.72169 8.05902L7.85352 8.28737L7.3144 8.59863C7.27233 8.62292 7.21863 8.60853 7.19434 8.56646L6.93066 8.10977C6.90637 8.0677 6.92076 8.014 6.96283 7.98971C7.08875 7.91701 7.13204 7.75544 7.05934 7.62953C6.98665 7.50361 6.82508 7.46032 6.69916 7.53302C6.65709 7.55731 6.60339 7.54292 6.5791 7.50085L6.31543 7.04415C6.29114 7.00208 6.30553 6.94838 6.3476 6.92409L6.88041 6.61647L7.01224 6.84482C7.03653 6.88689 7.09023 6.90128 7.13231 6.87699C7.17438 6.8527 7.18877 6.799 7.16448 6.75693L7.03264 6.52858L8.79344 5.51198C8.83552 5.48769 8.88922 5.50208 8.91351 5.54415L9.79241 7.06646C9.8167 7.10853 9.80231 7.16223 9.76024 7.18652ZM7.34026 7.06139C7.31597 7.01932 7.26227 7.00493 7.2202 7.02922C7.17812 7.05351 7.16374 7.10721 7.18803 7.14928L7.27592 7.30151C7.30021 7.34359 7.35391 7.35797 7.39598 7.33368C7.43805 7.30939 7.45244 7.25569 7.42815 7.21362L7.34026 7.06139ZM7.60393 7.51809C7.57964 7.47601 7.52594 7.46163 7.48387 7.48592C7.4418 7.51021 7.42741 7.5639 7.4517 7.60598L7.53959 7.75821C7.56388 7.80028 7.61758 7.81467 7.65965 7.79038C7.70172 7.76609 7.71611 7.71239 7.69182 7.67032L7.60393 7.51809Z" fill="#21C580"/>
<g clip-path="url(#clip8)">
<path d="M8.85329 7.23443C8.834 7.2641 8.79429 7.2725 8.76461 7.25319L7.883 6.67957C7.85333 6.66027 7.84493 6.62057 7.86423 6.59089C7.86993 6.58214 7.8774 6.57524 7.88586 6.57036C7.90609 6.55868 7.93199 6.55852 7.95291 6.57213L8.83452 7.14575C8.8642 7.16505 8.8726 7.20475 8.85329 7.23443Z" fill="#FF6969"/>
<path d="M8.40105 7.13819C8.46807 7.25427 8.42815 7.40324 8.31207 7.47026C8.196 7.53727 8.04704 7.49736 7.98002 7.38128C7.913 7.2652 7.95292 7.11624 8.06899 7.04922C8.18507 6.9822 8.33403 7.02212 8.40105 7.13819ZM8.13309 7.16023C8.07822 7.19191 8.05936 7.26232 8.09103 7.31718C8.12271 7.37205 8.19312 7.39092 8.24798 7.35924C8.30285 7.32756 8.32172 7.25716 8.29004 7.20229C8.25836 7.14743 8.18795 7.12856 8.13309 7.16023Z" fill="#FF6969"/>
<path d="M8.64997 6.77396C8.53389 6.84098 8.38493 6.80107 8.31791 6.68499C8.25089 6.56892 8.29081 6.41995 8.40689 6.35293C8.52297 6.28591 8.67193 6.32583 8.73895 6.44191C8.80597 6.55799 8.76605 6.70694 8.64997 6.77396ZM8.47099 6.46395C8.41612 6.49563 8.39725 6.56604 8.42893 6.6209C8.4606 6.67576 8.53101 6.69463 8.58588 6.66295C8.64074 6.63128 8.65961 6.56087 8.62794 6.506C8.59626 6.45114 8.52585 6.43227 8.47099 6.46395Z" fill="#FF6969"/>
</g>
</g>
<g clip-path="url(#clip9)">
<path d="M8.76024 10.1865L7.00575 11.1995L6.87392 10.9711C6.84963 10.9291 6.79593 10.9147 6.75386 10.939C6.71179 10.9633 6.6974 11.0169 6.72169 11.059L6.85352 11.2874L6.3144 11.5986C6.27233 11.6229 6.21863 11.6085 6.19434 11.5665L5.93066 11.1098C5.90637 11.0677 5.92076 11.014 5.96283 10.9897C6.08875 10.917 6.13204 10.7554 6.05934 10.6295C5.98665 10.5036 5.82508 10.4603 5.69916 10.533C5.65709 10.5573 5.60339 10.5429 5.5791 10.5008L5.31543 10.0442C5.29114 10.0021 5.30553 9.94838 5.3476 9.92409L5.88041 9.61647L6.01224 9.84482C6.03653 9.88689 6.09023 9.90128 6.13231 9.87699C6.17438 9.8527 6.18877 9.799 6.16448 9.75693L6.03264 9.52858L7.79344 8.51198C7.83552 8.48769 7.88922 8.50208 7.91351 8.54415L8.79241 10.0665C8.8167 10.1085 8.80231 10.1622 8.76024 10.1865ZM6.34026 10.0614C6.31597 10.0193 6.26227 10.0049 6.2202 10.0292C6.17812 10.0535 6.16374 10.1072 6.18803 10.1493L6.27592 10.3015C6.30021 10.3436 6.35391 10.358 6.39598 10.3337C6.43805 10.3094 6.45244 10.2557 6.42815 10.2136L6.34026 10.0614ZM6.60393 10.5181C6.57964 10.476 6.52594 10.4616 6.48387 10.4859C6.4418 10.5102 6.42741 10.5639 6.4517 10.606L6.53959 10.7582C6.56388 10.8003 6.61758 10.8147 6.65965 10.7904C6.70172 10.7661 6.71611 10.7124 6.69182 10.6703L6.60393 10.5181Z" fill="#21C580"/>
<g clip-path="url(#clip10)">
<path d="M7.85329 10.2344C7.834 10.2641 7.79429 10.2725 7.76461 10.2532L6.883 9.67957C6.85333 9.66027 6.84493 9.62057 6.86423 9.59089C6.86993 9.58214 6.8774 9.57524 6.88586 9.57036C6.90609 9.55868 6.93199 9.55852 6.95291 9.57213L7.83452 10.1457C7.8642 10.1651 7.8726 10.2048 7.85329 10.2344Z" fill="#FF6969"/>
<path d="M7.40105 10.1382C7.46807 10.2543 7.42815 10.4032 7.31207 10.4703C7.196 10.5373 7.04704 10.4974 6.98002 10.3813C6.913 10.2652 6.95292 10.1162 7.06899 10.0492C7.18507 9.9822 7.33403 10.0221 7.40105 10.1382ZM7.13309 10.1602C7.07822 10.1919 7.05936 10.2623 7.09103 10.3172C7.12271 10.3721 7.19312 10.3909 7.24798 10.3592C7.30285 10.3276 7.32172 10.2572 7.29004 10.2023C7.25836 10.1474 7.18795 10.1286 7.13309 10.1602Z" fill="#FF6969"/>
<path d="M7.64997 9.77396C7.53389 9.84098 7.38493 9.80107 7.31791 9.68499C7.25089 9.56892 7.29081 9.41995 7.40689 9.35293C7.52297 9.28591 7.67193 9.32583 7.73895 9.44191C7.80597 9.55799 7.76605 9.70694 7.64997 9.77396ZM7.47099 9.46395C7.41612 9.49563 7.39725 9.56604 7.42893 9.6209C7.4606 9.67576 7.53101 9.69463 7.58588 9.66295C7.64074 9.63128 7.65961 9.56087 7.62794 9.506C7.59626 9.45114 7.52585 9.43227 7.47099 9.46395Z" fill="#FF6969"/>
</g>
</g>
<g clip-path="url(#clip11)">
<path d="M4.76024 8.91113L3.00575 7.89818L2.87392 8.12653C2.84963 8.1686 2.79593 8.18299 2.75386 8.1587C2.71179 8.13441 2.6974 8.08071 2.72169 8.03863L2.85352 7.81029L2.3144 7.49902C2.27233 7.47473 2.21863 7.48912 2.19434 7.53119L1.93066 7.98789C1.90637 8.02996 1.92076 8.08366 1.96283 8.10795C2.08875 8.18064 2.13204 8.34221 2.05934 8.46813C1.98665 8.59405 1.82508 8.63734 1.69916 8.56464C1.65709 8.54035 1.60339 8.55474 1.5791 8.59681L1.31543 9.0535C1.29114 9.09558 1.30553 9.14927 1.3476 9.17356L1.88041 9.48118L2.01224 9.25284C2.03653 9.21076 2.09023 9.19638 2.13231 9.22067C2.17438 9.24496 2.18877 9.29865 2.16448 9.34073L2.03264 9.56907L3.79344 10.5857C3.83552 10.61 3.88922 10.5956 3.91351 10.5535L4.79241 9.03119C4.8167 8.98912 4.80231 8.93542 4.76024 8.91113ZM2.34026 9.03626C2.31597 9.07834 2.26227 9.09272 2.2202 9.06843C2.17812 9.04414 2.16374 8.99044 2.18803 8.94837L2.27592 8.79614C2.30021 8.75407 2.35391 8.73968 2.39598 8.76397C2.43805 8.78826 2.45244 8.84196 2.42815 8.88403L2.34026 9.03626ZM2.60393 8.57957C2.57964 8.62164 2.52594 8.63603 2.48387 8.61174C2.4418 8.58745 2.42741 8.53375 2.4517 8.49168L2.53959 8.33945C2.56388 8.29738 2.61758 8.28299 2.65965 8.30728C2.70172 8.33157 2.71611 8.38527 2.69182 8.42734L2.60393 8.57957Z" fill="#21C580"/>
<g clip-path="url(#clip12)">
<path d="M3.58747 9.25638C3.56143 9.21318 3.53008 9.17361 3.49948 9.13367C3.48171 9.11054 3.46588 9.08638 3.45523 9.0593C3.43428 9.00589 3.47077 8.95988 3.52775 8.96621C3.54388 8.96801 3.55841 8.97399 3.57255 8.98108C3.6269 9.0087 3.67143 9.04729 3.70587 9.09776C3.723 9.12294 3.73293 9.12385 3.75527 9.10375C3.77883 9.08247 3.8012 9.05997 3.82427 9.03814C3.83973 9.02346 3.84002 9.00807 3.82762 8.99098C3.80482 8.95984 3.77901 8.93206 3.74903 8.90777C3.7098 8.87627 3.70992 8.87607 3.73469 8.83269C3.76969 8.7716 3.76969 8.7716 3.70852 8.73629C3.69967 8.73118 3.69093 8.72586 3.68196 8.72095C3.65292 8.70526 3.64519 8.7075 3.62777 8.73581C3.61993 8.74846 3.6129 8.76157 3.60515 8.77453C3.58287 8.81265 3.58302 8.81193 3.53873 8.80407C3.4316 8.78514 3.34202 8.81391 3.28042 8.90713C3.22581 8.98963 3.23714 9.07317 3.28309 9.15577C3.31136 9.2067 3.35043 9.24964 3.38457 9.29646C3.39795 9.31464 3.40982 9.33357 3.41751 9.35464C3.44055 9.41651 3.39753 9.47243 3.33197 9.46516C3.29692 9.46129 3.26559 9.44723 3.23742 9.42586C3.1939 9.39296 3.15612 9.35478 3.12652 9.30845C3.10921 9.28128 3.09999 9.28052 3.07609 9.3024C3.05548 9.32136 3.03557 9.34098 3.01565 9.36061C2.98888 9.387 2.9878 9.39631 3.0093 9.42831C3.03684 9.46889 3.07223 9.50193 3.11005 9.53262C3.13963 9.55667 3.13982 9.55866 3.1207 9.5927C3.11208 9.60811 3.10313 9.6236 3.0945 9.63901C3.08355 9.65845 3.0863 9.67506 3.10599 9.68696C3.12829 9.70038 3.15103 9.7135 3.17392 9.72591C3.19266 9.7362 3.20793 9.7316 3.21873 9.71288C3.23081 9.69196 3.24402 9.67141 3.2553 9.65002C3.2666 9.62811 3.28213 9.62258 3.30591 9.6288C3.36063 9.64322 3.41552 9.6411 3.46834 9.62117C3.61488 9.56625 3.67049 9.39419 3.58747 9.25638Z" fill="#FF6969"/>
</g>
</g>
<g clip-path="url(#clip13)">
<path d="M6.76024 4.91113L5.00575 3.89818L4.87392 4.12653C4.84963 4.1686 4.79593 4.18299 4.75386 4.1587C4.71179 4.13441 4.6974 4.08071 4.72169 4.03863L4.85352 3.81029L4.3144 3.49902C4.27233 3.47473 4.21863 3.48912 4.19434 3.53119L3.93066 3.98789C3.90637 4.02996 3.92076 4.08366 3.96283 4.10795C4.08875 4.18064 4.13204 4.34221 4.05934 4.46813C3.98665 4.59405 3.82508 4.63734 3.69916 4.56464C3.65709 4.54035 3.60339 4.55474 3.5791 4.59681L3.31543 5.0535C3.29114 5.09558 3.30553 5.14927 3.3476 5.17356L3.88041 5.48118L4.01224 5.25284C4.03653 5.21076 4.09023 5.19638 4.13231 5.22067C4.17438 5.24496 4.18877 5.29865 4.16448 5.34073L4.03264 5.56907L5.79344 6.58567C5.83552 6.60996 5.88922 6.59558 5.91351 6.5535L6.79241 5.03119C6.8167 4.98912 6.80231 4.93542 6.76024 4.91113ZM4.34026 5.03626C4.31597 5.07834 4.26227 5.09272 4.2202 5.06843C4.17812 5.04414 4.16374 4.99044 4.18803 4.94837L4.27592 4.79614C4.30021 4.75407 4.35391 4.73968 4.39598 4.76397C4.43805 4.78826 4.45244 4.84196 4.42815 4.88403L4.34026 5.03626ZM4.60393 4.57957C4.57964 4.62164 4.52594 4.63603 4.48387 4.61174C4.4418 4.58745 4.42741 4.53375 4.4517 4.49168L4.53959 4.33945C4.56388 4.29738 4.61758 4.28299 4.65965 4.30728C4.70172 4.33157 4.71611 4.38527 4.69182 4.42734L4.60393 4.57957Z" fill="#21C580"/>
<g clip-path="url(#clip14)">
<path d="M5.58747 5.25638C5.56143 5.21318 5.53008 5.17361 5.49948 5.13367C5.48171 5.11054 5.46588 5.08638 5.45523 5.0593C5.43428 5.00589 5.47077 4.95988 5.52775 4.96621C5.54388 4.96801 5.55841 4.97399 5.57255 4.98108C5.6269 5.0087 5.67143 5.04729 5.70587 5.09776C5.723 5.12294 5.73293 5.12385 5.75527 5.10375C5.77883 5.08247 5.8012 5.05997 5.82427 5.03814C5.83973 5.02346 5.84002 5.00807 5.82762 4.99098C5.80482 4.95984 5.77901 4.93206 5.74903 4.90777C5.7098 4.87627 5.70992 4.87607 5.73469 4.83269C5.76969 4.7716 5.76969 4.7716 5.70852 4.73629C5.69967 4.73118 5.69093 4.72586 5.68196 4.72095C5.65292 4.70526 5.64519 4.7075 5.62777 4.73581C5.61993 4.74846 5.6129 4.76157 5.60515 4.77453C5.58287 4.81265 5.58302 4.81193 5.53873 4.80407C5.4316 4.78514 5.34202 4.81391 5.28042 4.90713C5.22581 4.98963 5.23714 5.07317 5.28309 5.15577C5.31136 5.2067 5.35043 5.24964 5.38457 5.29646C5.39795 5.31464 5.40982 5.33357 5.41751 5.35464C5.44055 5.41651 5.39753 5.47243 5.33197 5.46516C5.29692 5.46129 5.26559 5.44723 5.23742 5.42586C5.1939 5.39296 5.15612 5.35478 5.12652 5.30845C5.10921 5.28128 5.09999 5.28052 5.07609 5.3024C5.05548 5.32136 5.03557 5.34098 5.01565 5.36061C4.98888 5.387 4.9878 5.39631 5.0093 5.42831C5.03684 5.46889 5.07223 5.50193 5.11005 5.53262C5.13963 5.55667 5.13982 5.55866 5.1207 5.5927C5.11208 5.60811 5.10313 5.6236 5.0945 5.63901C5.08355 5.65845 5.0863 5.67506 5.10599 5.68696C5.12829 5.70038 5.15103 5.7135 5.17392 5.72591C5.19266 5.7362 5.20793 5.7316 5.21873 5.71288C5.23081 5.69196 5.24402 5.67141 5.2553 5.65002C5.2666 5.62811 5.28213 5.62258 5.30591 5.6288C5.36063 5.64322 5.41552 5.6411 5.46834 5.62117C5.61488 5.56625 5.67049 5.39419 5.58747 5.25638Z" fill="#FF6969"/>
</g>
</g>
</g>
<defs>
<clipPath id="clip0">
<rect width="30.5" height="30.5" fill="white" transform="translate(0.638672 0.640625)"/>
</clipPath>
<clipPath id="clip1">
<rect width="3" height="3" fill="white" transform="translate(9 8.5) rotate(-30)"/>
</clipPath>
<clipPath id="clip2">
<rect width="1.125" height="1.125" fill="white" transform="translate(10.6191 8.60449) rotate(-30)"/>
</clipPath>
<clipPath id="clip3">
<rect width="3" height="3" fill="white" transform="translate(4.5 5) rotate(30)"/>
</clipPath>
<clipPath id="clip4">
<rect width="1.125" height="1.125" fill="white" transform="translate(5.1543 6.41699) rotate(30)"/>
</clipPath>
<clipPath id="clip5">
<rect width="3" height="3" fill="white" transform="translate(3.59766 9.09766) rotate(-150)"/>
</clipPath>
<clipPath id="clip6">
<rect width="1.125" height="1.125" fill="white" transform="translate(2.94336 7.68066) rotate(-150)"/>
</clipPath>
<clipPath id="clip7">
<rect width="3" height="3" fill="white" transform="matrix(0.866025 -0.5 -0.5 -0.866025 7.5 9.09766)"/>
</clipPath>
<clipPath id="clip8">
<rect width="1.125" height="1.125" fill="white" transform="matrix(0.866025 -0.5 -0.5 -0.866025 8.1543 7.68066)"/>
</clipPath>
<clipPath id="clip9">
<rect width="3" height="3" fill="white" transform="matrix(0.866025 -0.5 -0.5 -0.866025 6.5 12.0977)"/>
</clipPath>
<clipPath id="clip10">
<rect width="1.125" height="1.125" fill="white" transform="matrix(0.866025 -0.5 -0.5 -0.866025 7.1543 10.6807)"/>
</clipPath>
<clipPath id="clip11">
<rect width="3" height="3" fill="white" transform="translate(2.5 7) rotate(30)"/>
</clipPath>
<clipPath id="clip12">
<rect width="1.125" height="1.125" fill="white" transform="translate(3.21875 8.4541) rotate(30)"/>
</clipPath>
<clipPath id="clip13">
<rect width="3" height="3" fill="white" transform="translate(4.5 3) rotate(30)"/>
</clipPath>
<clipPath id="clip14">
<rect width="1.125" height="1.125" fill="white" transform="translate(5.21875 4.4541) rotate(30)"/>
</clipPath>
</defs>
</svg>
