<svg width="24" height="24" viewBox="0 0 24 24" fill="none" xmlns="http://www.w3.org/2000/svg">

<path d="M18.1444 14.3039C18.0519 14.3975 18 14.5238 18 14.6554V20.5C18 20.7761 17.7761 21 17.5 21H2.5C2.22386 21 2 20.7761 2 20.5V9.5C2 9.22386 2.22386 9 2.5 9H8.53427C8.66784 9 8.79585 8.94656 8.88977 8.85159L9.87877 7.85159C10.1911 7.53582 9.96739 7 9.52327 7H0.5C0.223857 7 0 7.22386 0 7.5V22.5C0 22.7761 0.223858 23 0.5 23H19.5C19.7761 23 20 22.7761 20 22.5V13.6439C20 13.1971 19.4586 12.9746 19.1444 13.2924L18.1444 14.3039ZM19.1195 4.1922C19.3144 3.99522 19.6324 3.9944 19.8284 4.19037L20.8283 5.19028C21.0228 5.38482 21.0236 5.69999 20.8301 5.89554L12.0043 14.8136C11.9356 14.883 11.8481 14.9308 11.7525 14.951L10.4403 15.2288C10.0816 15.3047 9.76589 14.9815 9.85012 14.6247L10.1487 13.3599C10.1698 13.2704 10.2152 13.1884 10.2799 13.123L19.1195 4.1922ZM19.8203 1.35518C19.6244 1.15929 19.3065 1.16013 19.1115 1.35703L8.46012 12.1159C8.3953 12.1814 8.34983 12.2635 8.32873 12.3531L7.18042 17.2332C7.09648 17.59 7.41211 17.9128 7.77064 17.8369L12.7515 16.783C12.8471 16.7628 12.9346 16.715 13.0033 16.6456L23.651 5.88762C23.8446 5.69204 23.8437 5.3768 23.6491 5.18226L19.8203 1.35518Z" fill="black"/>

<defs>
<clipPath id="clip0">
<rect width="24" height="24" fill="white"/>
</clipPath>
</defs>
</svg>
