<svg width="15" height="15" viewBox="0 0 15 15" fill="none" xmlns="http://www.w3.org/2000/svg">
<path d="M7.5 1.25C10.9462 1.25 13.75 4.05375 13.75 7.5C13.75 10.9462 10.9462 13.75 7.5 13.75C4.05375 13.75 1.25 10.9462 1.25 7.5C1.25 4.05375 4.05375 1.25 7.5 1.25ZM7.5 0C3.35813 0 0 3.35813 0 7.5C0 11.6419 3.35813 15 7.5 15C11.6419 15 15 11.6419 15 7.5C15 3.35813 11.6419 0 7.5 0ZM11.25 10.3363L8.38 7.49375L11.2213 4.62687L10.3363 3.75L7.49563 6.61812L4.62813 3.77875L3.75 4.65688L6.62063 7.50188L3.77875 10.3719L4.65688 11.25L7.50375 8.3775L10.3731 11.2213L11.25 10.3363Z" fill="#FF6969"/>
</svg>
