<svg width="17" height="17" viewBox="0 0 17 17" fill="none" xmlns="http://www.w3.org/2000/svg">
<g clip-path="url(#clip0)">
<path d="M16.2196 8.50054L16.9654 6.55523C17.0472 6.34062 16.9835 6.09732 16.8039 5.95177L15.1869 4.64074L14.8597 2.58281C14.8235 2.35545 14.645 2.17803 14.4177 2.14191L12.3598 1.81468L11.0498 0.196603C10.9053 0.0170524 10.6567 -0.0466932 10.4474 0.0351137L8.50103 0.782L6.55573 0.0361761C6.34005 -0.0466933 6.09888 0.0191773 5.95333 0.197665L4.64229 1.81574L2.58437 2.14297C2.35808 2.17909 2.17959 2.35758 2.14346 2.58388L1.81624 4.6418L0.198161 5.95283C0.0196728 6.09732 -0.0451352 6.34062 0.0366717 6.55523L0.782496 8.50054L0.0366717 10.4458C-0.0461977 10.6605 0.0196728 10.9037 0.198161 11.0482L1.81624 12.3582L2.14346 14.4161C2.17959 14.6435 2.35701 14.822 2.58437 14.8581L4.64229 15.1853L5.95333 16.8023C6.09888 16.983 6.34218 17.0467 6.55679 16.9638L8.50103 16.2191L10.4463 16.9649C10.508 16.9883 10.5717 17 10.6365 17C10.7927 17 10.9467 16.9309 11.0498 16.8023L12.3598 15.1853L14.4177 14.8581C14.645 14.822 14.8235 14.6435 14.8597 14.4161L15.1869 12.3582L16.8039 11.0482C16.9835 10.9027 17.0472 10.6605 16.9654 10.4458L16.2196 8.50054Z" fill="#2196F3"/>
<path d="M3.71913 6.90697C4.01236 6.90697 4.25035 6.66899 4.25035 6.37576C4.25035 6.08253 4.01236 5.84454 3.71913 5.84454H2.6567C2.36347 5.84454 2.12549 6.08253 2.12549 6.37576V10.6255C2.12549 10.9187 2.36347 11.1567 2.6567 11.1567C2.94993 11.1567 3.18792 10.9187 3.18792 10.6255V9.03183H3.71913C4.01236 9.03183 4.25035 8.79384 4.25035 8.50061C4.25035 8.20738 4.01236 7.9694 3.71913 7.9694H3.18792V6.90697H3.71913V6.90697Z" fill="#FAFAFA"/>
<path d="M11.1561 6.90697C11.4494 6.90697 11.6874 6.66899 11.6874 6.37576C11.6874 6.08253 11.4494 5.84454 11.1561 5.84454H10.0937C9.80048 5.84454 9.5625 6.08253 9.5625 6.37576V10.6255C9.5625 10.9187 9.80048 11.1567 10.0937 11.1567H11.1561C11.4494 11.1567 11.6874 10.9187 11.6874 10.6255C11.6874 10.3322 11.4494 10.0943 11.1561 10.0943H10.6249V9.03183H11.1561C11.4494 9.03183 11.6874 8.79384 11.6874 8.50061C11.6874 8.20738 11.4494 7.9694 11.1561 7.9694H10.6249V6.90697H11.1561V6.90697Z" fill="#FAFAFA"/>
<path d="M14.3434 9.03183C14.6366 9.03183 14.8746 8.79384 14.8746 8.50061C14.8746 8.20738 14.6366 7.9694 14.3434 7.9694H13.8122V6.90697H14.3434C14.6366 6.90697 14.8746 6.66899 14.8746 6.37576C14.8746 6.08253 14.6366 5.84454 14.3434 5.84454H13.281C12.9877 5.84454 12.7498 6.08253 12.7498 6.37576V10.6255C12.7498 10.9187 12.9877 11.1567 13.281 11.1567H14.3434C14.6366 11.1567 14.8746 10.9187 14.8746 10.6255C14.8746 10.3322 14.6366 10.0943 14.3434 10.0943H13.8122V9.03183H14.3434Z" fill="#FAFAFA"/>
<path d="M8.50003 7.43819C8.50003 6.55956 7.78501 5.84454 6.90639 5.84454H5.84396C5.55073 5.84454 5.31274 6.08253 5.31274 6.37576V10.6255C5.31274 10.9187 5.55073 11.1567 5.84396 11.1567C6.13719 11.1567 6.37517 10.9187 6.37517 10.6255V9.38562L7.54384 10.9442C7.64796 11.0834 7.80732 11.1567 7.96881 11.1567C8.07931 11.1567 8.19086 11.1227 8.28648 11.0504C8.52128 10.8741 8.56908 10.5415 8.39272 10.3067L7.3781 8.95215C8.02512 8.75028 8.50003 8.15214 8.50003 7.43819ZM6.90639 7.9694H6.37517V6.90697H6.90639C7.19962 6.90697 7.4376 7.14496 7.4376 7.43819C7.4376 7.73142 7.19962 7.9694 6.90639 7.9694Z" fill="#FAFAFA"/>
</g>
<defs>
<clipPath id="clip0">
<rect width="17" height="17" fill="white"/>
</clipPath>
</defs>
</svg>
