<svg width="210" height="159" viewBox="0 0 210 159" fill="none" xmlns="http://www.w3.org/2000/svg">
<path d="M35.3333 123.667L70.6667 71.02L92.5733 88.3333L114.833 53L131.201 79.182C119.974 90.6918 113.738 106.468 115.063 123.667H35.3333ZM130.91 159H0V0H194.333V66.2588C188.83 63.9533 182.876 62.5312 176.667 62.0542V17.6667H17.6667V141.333H119.268C122.024 147.949 126.025 153.912 130.91 159ZM48.5833 61.8333C41.2693 61.8333 35.3333 55.9062 35.3333 48.5833C35.3333 41.2693 41.2693 35.3333 48.5833 35.3333C55.8973 35.3333 61.8333 41.2693 61.8333 48.5833C61.8333 55.9062 55.8973 61.8333 48.5833 61.8333Z" fill="white"/>
<path d="M156.7 116.273V107.556H188.709C192.097 107.556 195.038 109.474 196.509 112.284C197.61 110.721 198.265 108.811 198.265 106.748C198.265 101.435 193.96 97.1305 188.647 97.1305H156.7V88.3833C156.7 87.0974 155.245 86.3428 154.198 87.082L134.439 101.027C133.546 101.658 133.546 102.99 134.439 103.622L154.198 117.566C155.253 118.313 156.7 117.559 156.7 116.273Z" fill="white"/>
<path d="M208.56 133.703L188.801 119.758C187.747 119.019 186.299 119.766 186.299 121.06V129.776H154.29C150.902 129.776 147.961 127.859 146.49 125.048C145.381 126.611 144.734 128.521 144.734 130.585C144.734 135.898 149.039 140.202 154.352 140.202H186.299V148.949C186.299 150.235 187.754 150.99 188.801 150.25L208.56 136.306C209.453 135.667 209.453 134.335 208.56 133.703Z" fill="white"/>
</svg>
