<svg class='couponIcon' width="40" height="40" viewBox="0 0 40 40" fill="none" xmlns="http://www.w3.org/2000/svg">
<path d="M38.8281 7H11.816V10.5156C11.816 11.1634 11.2919 11.6875 10.6441 11.6875C9.99641 11.6875 9.47227 11.1634 9.47227 10.5156V7H1.17188C0.524141 7 0 7.52414 0 8.17188V15.2031C0 15.8509 0.524141 16.375 1.17188 16.375C3.11047 16.375 4.6875 17.952 4.6875 19.8906C4.6875 21.8292 3.11047 23.4062 1.17188 23.4062C0.524141 23.4062 0 23.9304 0 24.5781V31.6094C0 32.2571 0.524141 32.7812 1.17188 32.7812H9.375V29.2656C9.375 28.6179 9.89914 28.0938 10.5469 28.0938C11.1946 28.0938 11.7188 28.6179 11.7188 29.2656V32.7812H38.8281C39.4759 32.7812 40 32.2571 40 31.6094V8.17188C40 7.52414 39.4759 7 38.8281 7ZM11.7188 24.5781C11.7188 25.2259 11.1946 25.75 10.5469 25.75C9.89914 25.75 9.375 25.2259 9.375 24.5781V22.2344C9.375 21.5866 9.89914 21.0625 10.5469 21.0625C11.1946 21.0625 11.7188 21.5866 11.7188 22.2344V24.5781ZM11.7188 17.5469C11.7188 18.1946 11.1946 18.7188 10.5469 18.7188C9.89914 18.7188 9.375 18.1946 9.375 17.5469V15.2031C9.375 14.5554 9.89914 14.0312 10.5469 14.0312C11.1946 14.0312 11.7188 14.5554 11.7188 15.2031V17.5469Z" fill="#21C580"/>
<g clip-path="url(#clip0)">
<path d="M27.5855 18.8139C26.9969 18.4886 26.3711 18.2407 25.7515 17.9836C25.3922 17.8349 25.0483 17.6614 24.7447 17.4198C24.1468 16.9427 24.2614 16.1682 24.9615 15.8615C25.1598 15.7747 25.3674 15.7469 25.578 15.7345C26.3897 15.6911 27.1611 15.8398 27.8953 16.193C28.2609 16.3696 28.3817 16.3138 28.5056 15.9327C28.6358 15.53 28.7442 15.1211 28.865 14.7152C28.9456 14.4426 28.8464 14.2629 28.5893 14.1483C28.1184 13.9407 27.6351 13.792 27.127 13.7115C26.4641 13.6092 26.4641 13.6061 26.461 12.9401C26.4579 12.0014 26.4579 12.0014 25.5161 12.0014C25.3798 12.0014 25.2435 11.9983 25.1071 12.0014C24.6672 12.0138 24.5929 12.0912 24.5805 12.5342C24.5743 12.7325 24.5805 12.9308 24.5774 13.1321C24.5743 13.7208 24.5712 13.7115 24.0074 13.9159C22.6442 14.4116 21.8016 15.341 21.7117 16.8281C21.6312 18.1447 22.3189 19.0338 23.4001 19.6813C24.0662 20.0809 24.8035 20.3164 25.5099 20.6293C25.7856 20.7501 26.0489 20.8895 26.2782 21.0816C26.9566 21.6423 26.8327 22.5748 26.0272 22.928C25.5966 23.117 25.1412 23.1635 24.6734 23.1046C23.9516 23.0148 23.2607 22.8258 22.6102 22.4881C22.2291 22.2898 22.1176 22.3425 21.9875 22.7545C21.8759 23.1108 21.7768 23.4702 21.6777 23.8295C21.5444 24.3128 21.594 24.4274 22.0556 24.6536C22.6442 24.9386 23.2731 25.0842 23.9144 25.1864C24.4163 25.267 24.4318 25.2887 24.438 25.8091C24.4411 26.0446 24.4411 26.2831 24.4442 26.5186C24.4473 26.816 24.5898 26.9895 24.8965 26.9957C25.2435 27.0019 25.5935 27.0019 25.9405 26.9926C26.2255 26.9864 26.3711 26.8315 26.3711 26.5434C26.3711 26.2212 26.3866 25.8959 26.3742 25.5737C26.3587 25.2453 26.5012 25.078 26.8172 24.9913C27.5453 24.793 28.1649 24.4027 28.642 23.8202C29.9679 22.2093 29.4629 19.8517 27.5855 18.8139Z" fill="#373864"/>
</g>
<defs>
<clipPath id="clip0">
<rect width="15" height="15" fill="white" transform="translate(18 12)"/>
</clipPath>
</defs>
</svg>
