<svg width="65" height="65" viewBox="0 0 65 65" fill="none" xmlns="http://www.w3.org/2000/svg">
<path d="M59.3461 16.9564H50.3873L45.2156 11.3042H25.4331V19.7825H16.9548V28.2607H8.47656V56.5215C8.47656 59.6303 11.02 62.1737 14.1288 62.1737H59.3461C62.4548 62.1737 64.9983 59.6303 64.9983 56.5215V22.6085C64.9983 19.4999 62.4548 16.9564 59.3461 16.9564ZM36.7374 53.6955C28.9374 53.6955 22.6069 47.365 22.6069 39.565C22.6069 31.765 28.9374 25.4347 36.7374 25.4347C44.5374 25.4347 50.8678 31.7651 50.8678 39.5651C50.8678 47.3651 44.5374 53.6955 36.7374 53.6955Z" fill="white"/>
<path d="M8.47826 25.4344H14.1305V16.9562H22.6087V11.3039H14.1305V2.82568H8.47826V11.3039H0V16.9562H8.47826V25.4344Z" fill="white"/>
<path d="M36.7388 30.5215C31.7367 30.5215 27.6953 34.5628 27.6953 39.565C27.6953 44.5672 31.7367 48.6085 36.7388 48.6085C41.741 48.6085 45.7824 44.5672 45.7824 39.565C45.7824 34.5628 41.741 30.5215 36.7388 30.5215Z" fill="white"/>
</svg>
