<svg width="25" height="25" viewBox="0 0 25 25" fill="none" xmlns="http://www.w3.org/2000/svg">
<path d="M12.5 0C5.60708 0 0 5.60708 0 12.5C0 19.3929 5.60708 25 12.5 25C19.3929 25 25 19.3919 25 12.5C25 5.60806 19.3929 0 12.5 0ZM12.5 23.0635C6.67603 23.0635 1.93647 18.325 1.93647 12.5C1.93647 6.67505 6.67603 1.93647 12.5 1.93647C18.324 1.93647 23.0635 6.67505 23.0635 12.5C23.0635 18.325 18.325 23.0635 12.5 23.0635Z" fill="white"/>
<path d="M17.3421 11.4447H13.4691V7.57178C13.4691 7.0373 13.0363 6.60352 12.5009 6.60352C11.9654 6.60352 11.5326 7.0373 11.5326 7.57178V11.4447H7.65967C7.12422 11.4447 6.69141 11.8785 6.69141 12.413C6.69141 12.9475 7.12422 13.3812 7.65967 13.3812H11.5326V17.2542C11.5326 17.7887 11.9654 18.2225 12.5009 18.2225C13.0363 18.2225 13.4691 17.7887 13.4691 17.2542V13.3812H17.3421C17.8775 13.3812 18.3104 12.9475 18.3104 12.413C18.3104 11.8785 17.8775 11.4447 17.3421 11.4447Z" fill="white"/>
</svg>
