<svg width="30" height="31" viewBox="0 0 30 31" fill="none" xmlns="http://www.w3.org/2000/svg">
<g clip-path="url(#clip0)">
<path d="M9.72656 19.9621H25.6057C25.9989 19.9621 26.3438 19.7021 26.4503 19.3245L29.9661 7.01956C30.0417 6.75429 29.9899 6.46933 29.8235 6.24892C29.6569 6.02919 29.3978 5.89941 29.1213 5.89941H7.69752L7.06924 3.07227C6.97998 2.66966 6.62292 2.38379 6.21094 2.38379H0.878906C0.393219 2.38379 0 2.77701 0 3.2627C0 3.74861 0.393219 4.1416 0.878906 4.1416H5.50552L8.67943 18.4238C7.74559 18.8299 7.08984 19.7594 7.08984 20.841C7.08984 22.2949 8.2727 23.4778 9.72656 23.4778H25.6057C26.0916 23.4778 26.4846 23.0848 26.4846 22.5989C26.4846 22.1132 26.0916 21.72 25.6057 21.72H9.72656C9.24248 21.72 8.84765 21.326 8.84765 20.841C8.84765 20.356 9.24248 19.9621 9.72656 19.9621Z" fill="white" fill-opacity="0.85"/>
<path d="M8.84766 26.1145C8.84766 27.5686 10.0305 28.7512 11.4846 28.7512C12.9385 28.7512 14.1213 27.5686 14.1213 26.1145C14.1213 24.6606 12.9385 23.4778 11.4846 23.4778C10.0305 23.4778 8.84766 24.6606 8.84766 26.1145Z" fill="white" fill-opacity="0.85"/>
<path d="M21.2109 26.1145C21.2109 27.5686 22.3938 28.7512 23.8477 28.7512C25.3017 28.7512 26.4844 27.5686 26.4844 26.1145C26.4844 24.6606 25.3017 23.4778 23.8477 23.4778C22.3938 23.4778 21.2109 24.6606 21.2109 26.1145Z" fill="white" fill-opacity="0.85"/>
</g>
<defs>
<clipPath id="clip0">
<rect width="30" height="30" fill="white" transform="translate(0 0.567375)"/>
</clipPath>
</defs>
</svg>
