<svg width="41" height="28" viewBox="0 0 41 28" fill="none" xmlns="http://www.w3.org/2000/svg">
<ellipse cx="28.2158" cy="25.4956" rx="2.33741" ry="2.50437" fill="white"/>
<ellipse cx="14.8591" cy="25.4956" rx="2.33741" ry="2.50437" fill="white"/>
<path d="M12.2185 18.4333C11.3367 18.4333 10.5589 17.8558 10.3039 17.0116L7.45717 7.58705C7.06932 6.30305 8.03043 5.00874 9.37173 5.00874H37.0334C38.4702 5.00874 39.4382 6.47852 38.8709 7.79848L34.8202 17.2231C34.5046 17.9574 33.782 18.4333 32.9827 18.4333H12.2185ZM5.49574 0C6.38851 0 7.17316 0.5917 7.41865 1.45005L12.3192 18.5849C12.5647 19.4433 13.3494 20.035 14.2421 20.035H31.2547C32.4478 20.035 33.2558 21.2502 32.7943 22.3504V22.3504C32.5341 22.9706 31.9272 23.3741 31.2547 23.3741H11.7644C10.874 23.3741 10.0909 22.7855 9.84329 21.9303L4.87916 4.783C4.63156 3.92775 3.84841 3.33916 2.95804 3.33916H2.40137C1.70353 3.33916 1.07931 2.90515 0.836297 2.251V2.251C0.431102 1.1603 1.23783 0 2.40137 0H5.49574Z" fill="white"/>
</svg>
