<svg width="30" height="31" viewBox="0 0 30 31" fill="none" xmlns="http://www.w3.org/2000/svg">
<g clip-path="url(#clip0)">
<path d="M12.8906 0.567383H1.17188C0.524597 0.567383 0 1.09198 0 1.73926V13.458C0 14.1053 0.524597 14.6299 1.17188 14.6299H12.8906C13.5379 14.6299 14.0625 14.1053 14.0625 13.458V1.73926C14.0625 1.09198 13.5379 0.567383 12.8906 0.567383ZM11.7188 12.2861H2.34375V2.91113H11.7188V12.2861ZM29.2767 16.5941C28.8389 16.4126 28.3347 16.5129 27.9996 16.848L16.2808 28.5667C15.9455 28.902 15.8453 29.406 16.0268 29.8439C16.2083 30.282 16.6354 30.5674 17.1094 30.5674H28.8281C29.4754 30.5674 30 30.0428 30 29.3955V17.6768C30 17.2027 29.7146 16.7754 29.2767 16.5941ZM27.6562 28.2236H19.9386L27.6562 20.506V28.2236ZM22.9688 14.6299C26.8458 14.6299 30 11.4757 30 7.59863C30 3.7216 26.8458 0.567383 22.9688 0.567383C19.0917 0.567383 15.9375 3.7216 15.9375 7.59863C15.9375 11.4757 19.0917 14.6299 22.9688 14.6299ZM22.9688 2.91113C25.5535 2.91113 27.6562 5.01387 27.6562 7.59863C27.6562 10.1834 25.5535 12.2861 22.9688 12.2861C20.384 12.2861 18.2812 10.1834 18.2812 7.59863C18.2812 5.01387 20.384 2.91113 22.9688 2.91113ZM13.7192 18.5055L8.68858 23.5361L13.7192 28.5667C14.1769 29.0245 14.1769 29.7665 13.7192 30.2241C13.2616 30.6816 12.5196 30.6818 12.0621 30.2241L7.03125 25.1935L2.00043 30.2243C1.54289 30.6818 0.800858 30.6818 0.343323 30.2243C-0.114441 29.7665 -0.114441 29.0245 0.343323 28.567L5.37392 23.5361L0.343323 18.5055C-0.114441 18.0478 -0.114441 17.3057 0.343323 16.8482C0.800858 16.3904 1.54289 16.3904 2.00043 16.8482L7.03125 21.8788L12.0621 16.848C12.5196 16.3904 13.2616 16.3904 13.7192 16.848C14.1769 17.3057 14.1769 18.0478 13.7192 18.5055Z" fill="white" fill-opacity="0.85"/>
</g>
<defs>
<clipPath id="clip0">
<rect width="30" height="30" fill="white" transform="translate(0 0.567383)"/>
</clipPath>
</defs>
</svg>
