<svg width="30" height="30" viewBox="0 0 30 30" fill="none" xmlns="http://www.w3.org/2000/svg">
<g clip-path="url(#clip0)">
<path d="M4.36672 28.2075H2.24101L3.74414 26.7044C4.55462 25.8939 5.06073 24.8398 5.1968 23.6963C3.08189 22.3084 1.53537 20.4824 0.707527 18.3883C-0.119734 16.2958 -0.223692 13.9924 0.406923 11.7269C1.16357 9.00855 2.93825 6.53087 5.40395 4.7502C8.08338 2.81527 11.419 1.79248 15.0501 1.79248C19.6245 1.79248 23.4801 3.10672 26.2001 5.59302C28.6505 7.83296 30 10.8543 30 14.1006C30 15.6778 29.6789 17.2124 29.0456 18.6618C28.3902 20.1616 27.4305 21.4971 26.1931 22.631C23.4695 25.1271 19.6163 26.4465 15.0501 26.4465C13.355 26.4465 11.5862 26.2202 10.007 25.805C8.51218 27.3384 6.48661 28.2075 4.36672 28.2075ZM15.0501 3.55348C7.76904 3.55348 3.30131 7.89571 2.10342 12.1991C0.971443 16.2659 2.64011 20.1086 6.56715 22.4784L7.00594 22.7432L6.99243 23.2555C6.96567 24.2695 6.72394 25.2461 6.29126 26.129C7.34487 25.7725 8.30092 25.1262 9.04958 24.2417L9.42186 23.8019L9.97393 23.967C11.5232 24.4304 13.3259 24.6855 15.0501 24.6855C24.1118 24.6855 28.239 19.1987 28.239 14.1006C28.239 11.3549 27.093 8.79505 25.0119 6.89282C22.6221 4.70823 19.1773 3.55348 15.0501 3.55348Z" fill="white" fill-opacity="0.85"/>
</g>
<defs>
<clipPath id="clip0">
<rect width="30" height="30" fill="white"/>
</clipPath>
</defs>
</svg>
