<svg width="65" height="65" viewBox="0 0 65 65" fill="none" xmlns="http://www.w3.org/2000/svg">
<path d="M6.50005 13H0V58.5C0 62.0912 2.9087 65.0001 6.50005 65.0001H52.0001V58.5H6.50005V13Z" fill="white" fill-opacity="0.9"/>
<path d="M58.5 0H19.5C15.9088 0 13 2.9087 13 6.50005V45.5C13 49.0912 15.9087 52.0001 19.5 52.0001H58.5C62.0912 52.0001 65.0001 49.0914 65.0001 45.5V6.50005C65.0001 2.9087 62.0912 0 58.5 0ZM55.2501 29.25H42.2501V42.2499H35.7501V29.25H22.7501V22.7499H35.7501V9.74999H42.2501V22.7499H55.2501V29.25V29.25Z" fill="white" fill-opacity="0.9"/>
<defs>
<clipPath id="clip0">
<rect width="65" height="65" fill="white"/>
</clipPath>
</defs>
</svg>
