<svg width="48" height="34" viewBox="0 0 48 34" fill="none" xmlns="http://www.w3.org/2000/svg">
<path d="M24.03 3.9054C10.8885 3.9054 2.45413 12.8453 0.457939 15.2034C0.175988 15.5365 0.174189 16.008 0.44536 16.3499C2.49605 18.9355 11.4687 29.2567 24.03 29.2567C37.6043 29.2567 45.8155 18.8659 47.6212 16.324C47.8576 15.9911 47.8433 15.5542 47.5847 15.2381C45.6997 12.9345 37.455 3.9054 24.03 3.9054ZM24 25.6351C18.478 25.6351 14 21.5825 14 16.5811C14 11.5814 18.478 7.52702 24 7.52702C29.524 7.52702 34 11.5814 34 16.5811C34 21.5825 29.524 25.6351 24 25.6351Z" fill="#343A40"/>
<ellipse cx="24" cy="16.5811" rx="6" ry="5.43243" fill="#343A40"/>
<line y1="-1.5" x2="49.108" y2="-1.5" transform="matrix(0.812258 -0.583298 0.658935 0.752199 5 31.6445)" stroke="#343A40" stroke-width="3"/>
<line y1="-1.5" x2="49.3003" y2="-1.5" transform="matrix(0.80909 -0.587684 0.663178 0.748461 7 33.7838)" stroke="#F3F3F3" stroke-width="3"/>
</svg>
