<svg width="13" height="13" viewBox="0 0 13 13" fill="none" xmlns="http://www.w3.org/2000/svg">
<path d="M10.8202 0C9.93753 0 9.19757 0.586288 8.94561 1.38711H6.58406C6.25906 1.38711 5.99644 1.65004 5.99644 1.97477L5.99564 4.64101C5.19526 4.89301 4.60933 5.63373 4.60933 6.51607C4.60933 7.39828 5.19566 8.13931 5.99564 8.39127V10.437L4.05278 10.4381C3.80109 9.63728 3.06091 9.05117 2.17772 9.05117C1.08894 9.05117 0.203125 9.93685 0.203125 11.0259C0.203125 12.1144 1.08867 13.0001 2.17772 13.0001C3.06086 13.0001 3.80109 12.4139 4.05278 11.6137L6.58433 11.6131C6.90892 11.6131 7.17186 11.3494 7.17186 11.0251V8.39073C7.97268 8.13931 8.55856 7.39828 8.55856 6.5158C8.55856 5.63346 7.97236 4.89274 7.17186 4.64074L7.17244 2.56257H8.94566C9.19762 3.36281 9.93807 3.94888 10.8203 3.94888C11.9096 3.94888 12.7953 3.0632 12.7953 1.97455C12.7952 0.885811 11.9096 0 10.8202 0ZM2.17745 11.8244C1.73701 11.8244 1.37868 11.4662 1.37868 11.0263C1.37868 10.5859 1.73701 10.2266 2.17745 10.2266C2.61802 10.2266 2.97636 10.5859 2.97636 11.0263C2.97636 11.4662 2.61802 11.8244 2.17745 11.8244ZM6.58379 7.31524C6.14322 7.31524 5.78489 6.95678 5.78489 6.51629C5.78489 6.07572 6.14327 5.71765 6.58379 5.71765C7.02423 5.71765 7.38248 6.07603 7.38248 6.51629C7.38248 6.95673 7.02423 7.31524 6.58379 7.31524ZM10.8202 2.77354C10.3801 2.77354 10.0216 2.41517 10.0216 1.97517C10.0216 1.53473 10.3801 1.17609 10.8202 1.17609C11.2609 1.17609 11.6197 1.53469 11.6197 1.97517C11.6197 2.41521 11.2609 2.77354 10.8202 2.77354Z" fill="white"/>

<defs>
<clipPath id="clip0">
<rect width="13" height="13" fill="white"/>
</clipPath>
</defs>
</svg>
