<svg class='couponIcon' width="40" height="40" viewBox="0 0 40 40" fill="none" xmlns="http://www.w3.org/2000/svg">
<path d="M38.8281 7H11.816V10.5156C11.816 11.1634 11.2919 11.6875 10.6441 11.6875C9.99641 11.6875 9.47227 11.1634 9.47227 10.5156V7H1.17188C0.524141 7 0 7.52414 0 8.17188V15.2031C0 15.8509 0.524141 16.375 1.17188 16.375C3.11047 16.375 4.6875 17.952 4.6875 19.8906C4.6875 21.8292 3.11047 23.4062 1.17188 23.4062C0.524141 23.4062 0 23.9304 0 24.5781V31.6094C0 32.2571 0.524141 32.7812 1.17188 32.7812H9.375V29.2656C9.375 28.6179 9.89914 28.0938 10.5469 28.0938C11.1946 28.0938 11.7188 28.6179 11.7188 29.2656V32.7812H38.8281C39.4759 32.7812 40 32.2571 40 31.6094V8.17188C40 7.52414 39.4759 7 38.8281 7ZM11.7188 24.5781C11.7188 25.2259 11.1946 25.75 10.5469 25.75C9.89914 25.75 9.375 25.2259 9.375 24.5781V22.2344C9.375 21.5866 9.89914 21.0625 10.5469 21.0625C11.1946 21.0625 11.7188 21.5866 11.7188 22.2344V24.5781ZM11.7188 17.5469C11.7188 18.1946 11.1946 18.7188 10.5469 18.7188C9.89914 18.7188 9.375 18.1946 9.375 17.5469V15.2031C9.375 14.5554 9.89914 14.0312 10.5469 14.0312C11.1946 14.0312 11.7188 14.5554 11.7188 15.2031V17.5469Z" fill="#21C580"/>
<g clip-path="url(#clip21)">
<path d="M28.0452 12.4876C27.6246 12.2736 27.11 12.4413 26.8961 12.862L20.5403 25.3631C20.3263 25.7838 20.494 26.2982 20.9147 26.5122C21.0388 26.5752 21.1711 26.6051 21.3014 26.6051C21.6128 26.6051 21.913 26.4343 22.0638 26.1377L28.4197 13.6366C28.6336 13.2159 28.4659 12.7015 28.0452 12.4876Z" fill="#373864"/>
<path d="M23.4822 16.6044C23.4822 14.8173 22.0282 13.3633 20.2411 13.3633C18.454 13.3633 17 14.8173 17 16.6044C17 18.3916 18.454 19.8455 20.2411 19.8455C22.0283 19.8455 23.4822 18.3916 23.4822 16.6044ZM20.2411 18.1364C19.3964 18.1364 18.7092 17.4491 18.7092 16.6044C18.7092 15.7597 19.3964 15.0725 20.2411 15.0725C21.0858 15.0725 21.7731 15.7597 21.7731 16.6044C21.773 17.4491 21.0858 18.1364 20.2411 18.1364Z" fill="#373864"/>
<path d="M28.7588 19.1543C26.9716 19.1543 25.5176 20.6083 25.5176 22.3954C25.5176 24.1825 26.9715 25.6365 28.7588 25.6365C30.5459 25.6365 31.9999 24.1826 31.9999 22.3954C31.9999 20.6082 30.5459 19.1543 28.7588 19.1543ZM28.7588 23.9273C27.914 23.9273 27.2268 23.24 27.2268 22.3953C27.2268 21.5507 27.914 20.8634 28.7588 20.8634C29.6034 20.8634 30.2907 21.5507 30.2907 22.3953C30.2907 23.24 29.6035 23.9273 28.7588 23.9273Z" fill="#373864"/>
</g>
<defs>
<clipPath id="clip21">
<rect width="15" height="15" fill="white" transform="translate(17 12)"/>
</clipPath>
</defs>
</svg>
