<svg width="30" height="31" viewBox="0 0 30 31" fill="none" xmlns="http://www.w3.org/2000/svg">
<g clip-path="url(#clip0)">
<path d="M15 12.6963C17.8109 12.6963 20.0977 10.4095 20.0977 7.59863C20.0977 4.78777 17.8109 2.50098 15 2.50098C12.1891 2.50098 9.90234 4.78777 9.90234 7.59863C9.90234 10.4095 12.1891 12.6963 15 12.6963ZM15 4.25879C16.8416 4.25879 18.3398 5.75703 18.3398 7.59863C18.3398 9.44023 16.8416 10.9385 15 10.9385C13.1584 10.9385 11.6602 9.44023 11.6602 7.59863C11.6602 5.75703 13.1584 4.25879 15 4.25879Z" fill="white" fill-opacity="0.85"/>
<path d="M25.3125 12.6963C27.0895 12.6963 28.5352 11.2506 28.5352 9.47363C28.5352 7.69666 27.0895 6.25098 25.3125 6.25098C23.5355 6.25098 22.0898 7.69666 22.0898 9.47363C22.0898 11.2506 23.5355 12.6963 25.3125 12.6963ZM25.3125 8.00879C26.1202 8.00879 26.7773 8.66592 26.7773 9.47363C26.7773 10.2813 26.1202 10.9385 25.3125 10.9385C24.5048 10.9385 23.8477 10.2813 23.8477 9.47363C23.8477 8.66592 24.5048 8.00879 25.3125 8.00879Z" fill="white" fill-opacity="0.85"/>
<path d="M26.0215 14.6885H24.6621C23.0602 14.6885 21.6774 15.6349 21.0473 16.9943C19.75 15.578 17.8865 14.6885 15.8191 14.6885H14.181C12.1136 14.6885 10.2501 15.578 8.95277 16.9943C8.3226 15.6349 6.93979 14.6885 5.33789 14.6885H3.97852C1.78477 14.6885 0 16.4625 0 18.643V25.042C0 25.9886 0.773086 26.7588 1.72336 26.7588H7.09799C7.18811 27.8076 8.07006 28.6338 9.14191 28.6338H20.8581C21.9299 28.6338 22.8119 27.8076 22.9021 26.7588H28.2153C29.1994 26.7588 30.0001 25.9613 30.0001 24.9811V18.643C30 16.4625 28.2152 14.6885 26.0215 14.6885ZM1.75781 18.643C1.75781 17.4317 2.75402 16.4463 3.97852 16.4463H5.33789C6.56238 16.4463 7.55859 17.4317 7.55859 18.643V19.2448C6.96756 20.7837 7.08984 21.706 7.08984 25.001H1.75781V18.643ZM21.1523 26.5818C21.1523 26.744 21.0204 26.876 20.8581 26.876H9.14186C8.97961 26.876 8.84766 26.744 8.84766 26.5818V21.7796C8.84766 18.8388 11.2402 16.4463 14.1809 16.4463H15.819C18.7598 16.4463 21.1523 18.8388 21.1523 21.7796V26.5818ZM28.2422 24.9811C28.2422 25.0113 28.5698 25.001 22.9102 25.001C22.9102 21.6816 23.0315 20.7812 22.4414 19.2448V18.643C22.4414 17.4317 23.4376 16.4463 24.6621 16.4463H26.0215C27.246 16.4463 28.2422 17.4317 28.2422 18.643V24.9811Z" fill="white" fill-opacity="0.85"/>
<path d="M4.6875 12.6963C6.46447 12.6963 7.91016 11.2506 7.91016 9.47363C7.91016 7.69666 6.46447 6.25098 4.6875 6.25098C2.91053 6.25098 1.46484 7.69666 1.46484 9.47363C1.46484 11.2506 2.91053 12.6963 4.6875 12.6963ZM4.6875 8.00879C5.49521 8.00879 6.15234 8.66592 6.15234 9.47363C6.15234 10.2813 5.49521 10.9385 4.6875 10.9385C3.87979 10.9385 3.22266 10.2813 3.22266 9.47363C3.22266 8.66592 3.87979 8.00879 4.6875 8.00879Z" fill="white" fill-opacity="0.85"/>
</g>
<defs>
<clipPath id="clip0">
<rect width="30" height="30" fill="white" transform="translate(0 0.567383)"/>
</clipPath>
</defs>
</svg>
