<svg width="22" height="21" viewBox="0 0 22 21" fill="none" xmlns="http://www.w3.org/2000/svg">
<path d="M11 3.82892L18.9118 18.3333H3.08825L11 3.82892ZM11 0L0 20.1667H22L11 0ZM10.0833 8.25H11.9167V13.75H10.0833V8.25ZM11 17.1875C10.3684 17.1875 9.85417 16.6742 9.85417 16.0417C9.85417 15.4092 10.3684 14.8958 11 14.8958C11.6316 14.8958 12.1458 15.4092 12.1458 16.0417C12.1458 16.6742 11.6316 17.1875 11 17.1875Z" fill="#715100"/>
<rect x="9.16602" y="7.33334" width="3.66667" height="10.0833" fill="#FFFBD6"/>
<path d="M10.5 14.2308H11.5769C11.8531 14.2308 12.0769 14.007 12.0769 13.7308V8.50004C12.0769 8.2239 11.8531 8.00004 11.5769 8.00004H10.5C10.2239 8.00004 10 8.2239 10 8.50004V13.7308C10 14.0069 10.2239 14.2308 10.5 14.2308Z" fill="#715100"/>
<circle cx="11.0385" cy="15.9616" r="1.03846" fill="#715100"/>
</svg>
