<svg width="16" height="16" viewBox="0 0 16 16" fill="none" xmlns="http://www.w3.org/2000/svg">
<path d="M14.9361 8.20723C14.8717 8.07551 14.8717 7.92445 14.9361 7.79276L15.5329 6.57199C15.8651 5.89228 15.6019 5.08212 14.9336 4.72753L13.7332 4.09066C13.6037 4.02197 13.515 3.89972 13.4896 3.75538L13.2549 2.41698C13.1242 1.6718 12.4348 1.17105 11.6859 1.27702L10.3405 1.46733C10.1953 1.48783 10.0517 1.44115 9.94633 1.33924L8.96974 0.394495C8.42596 -0.131564 7.57409 -0.131595 7.03035 0.394495L6.05373 1.33933C5.94835 1.44127 5.80476 1.48786 5.65957 1.46743L4.31418 1.27712C3.56496 1.17108 2.8759 1.67189 2.74519 2.41708L2.51044 3.75541C2.48509 3.89979 2.39631 4.02201 2.26684 4.09072L1.06654 4.72759C0.39823 5.08216 0.134982 5.89237 0.46723 6.57208L1.06395 7.79283C1.12832 7.92454 1.12832 8.07561 1.06395 8.20729L0.467199 9.42804C0.13495 10.1078 0.398199 10.9179 1.06651 11.2725L2.26681 11.9094C2.39631 11.9781 2.48509 12.1003 2.51044 12.2446L2.74519 13.583C2.86418 14.2614 3.44587 14.7372 4.1144 14.7371C4.18024 14.7371 4.24705 14.7325 4.31421 14.723L5.65961 14.5327C5.8047 14.5121 5.94839 14.5588 6.05376 14.6608L7.03035 15.6055C7.30228 15.8686 7.65109 16.0001 8.00003 16C8.34887 16 8.6979 15.8685 8.96971 15.6055L9.94633 14.6608C10.0517 14.5588 10.1953 14.5123 10.3405 14.5327L11.6859 14.723C12.4352 14.829 13.1242 14.3282 13.2549 13.583L13.4897 12.2447C13.515 12.1003 13.6038 11.9781 13.7332 11.9094L14.9336 11.2725C15.6019 10.9179 15.8651 10.1077 15.5329 9.428L14.9361 8.20723ZM6.15438 3.84735C7.08725 3.84735 7.84622 4.60631 7.84622 5.53918C7.84622 6.47205 7.08725 7.23102 6.15438 7.23102C5.22151 7.23102 4.46255 6.47205 4.46255 5.53918C4.46255 4.60631 5.22151 3.84735 6.15438 3.84735ZM5.28114 11.3714C5.19105 11.4615 5.07295 11.5065 4.95489 11.5065C4.83683 11.5065 4.71871 11.4615 4.62864 11.3714C4.44846 11.1912 4.44846 10.899 4.62864 10.7188L10.7189 4.6286C10.899 4.44841 11.1912 4.44841 11.3714 4.6286C11.5516 4.80878 11.5516 5.10094 11.3714 5.28112L5.28114 11.3714ZM9.84561 12.1527C8.91274 12.1527 8.15378 11.3937 8.15378 10.4608C8.15378 9.52797 8.91274 8.76901 9.84561 8.76901C10.7785 8.76901 11.5374 9.52797 11.5374 10.4608C11.5374 11.3937 10.7785 12.1527 9.84561 12.1527Z" fill="white"/>
<path d="M9.84569 9.69183C9.42166 9.69183 9.07666 10.0368 9.07666 10.4608C9.07666 10.8849 9.42163 11.2298 9.84569 11.2298C10.2697 11.2298 10.6147 10.8849 10.6147 10.4608C10.6147 10.0368 10.2697 9.69183 9.84569 9.69183Z" fill="white"/>
<path d="M6.15425 4.77014C5.73022 4.77014 5.38525 5.11511 5.38525 5.53914C5.38525 5.96317 5.73022 6.30816 6.15425 6.30816C6.57828 6.30816 6.92328 5.9632 6.92328 5.53914C6.92325 5.11514 6.57828 4.77014 6.15425 4.77014Z" fill="white"/>

<defs>
<clipPath id="clip0">
<rect width="16" height="16" fill="white"/>
</clipPath>
</defs>
</svg>
