<svg width="30" height="31" viewBox="0 0 30 31" fill="none" xmlns="http://www.w3.org/2000/svg">

<path d="M28.0056 15.956C27.8849 15.709 27.8849 15.4257 28.0056 15.1788L29.1245 12.8899C29.7475 11.6154 29.2539 10.0964 28.0008 9.43152L25.7503 8.23738C25.5075 8.10859 25.341 7.87938 25.2935 7.60873L24.8533 5.09924C24.6082 3.70202 23.3158 2.76312 21.9115 2.96181L19.3888 3.31864C19.1166 3.35708 18.8473 3.26954 18.6498 3.07847L16.8187 1.30707C15.7991 0.320708 14.2019 0.320649 13.1823 1.30707L11.3512 3.07864C11.1536 3.26977 10.8844 3.35714 10.6121 3.31882L8.08951 2.96198C6.68473 2.76317 5.39275 3.70219 5.14765 5.09941L4.7075 7.60879C4.65998 7.87949 4.49351 8.10865 4.25076 8.2375L2.00019 9.43163C0.747109 10.0964 0.253518 11.6156 0.876483 12.8901L1.99532 15.1789C2.11603 15.4259 2.11603 15.7092 1.99532 15.9561L0.876425 18.245C0.253459 19.5194 0.74705 21.0385 2.00013 21.7033L4.2507 22.8975C4.49351 23.0262 4.65998 23.2555 4.7075 23.5261L5.14765 26.0356C5.37077 27.3076 6.46143 28.1996 7.71492 28.1995C7.83838 28.1995 7.96365 28.1908 8.08957 28.173L10.6122 27.8161C10.8842 27.7775 11.1536 27.8652 11.3512 28.0563L13.1823 29.8277C13.6922 30.321 14.3462 30.5675 15.0005 30.5675C15.6546 30.5674 16.309 30.3208 16.8186 29.8277L18.6498 28.0563C18.8474 27.8652 19.1167 27.7779 19.3888 27.8161L21.9115 28.173C23.3164 28.3717 24.6082 27.4328 24.8533 26.0355L25.2935 23.5262C25.341 23.2555 25.5075 23.0263 25.7503 22.8975L28.0008 21.7033C29.2539 21.0385 29.7475 19.5194 29.1245 18.2449L28.0056 15.956ZM27.1898 20.1748L24.9393 21.3689C24.2217 21.7497 23.7296 22.427 23.5893 23.2271L23.1491 25.7365C23.0662 26.2093 22.6292 26.5268 22.1538 26.4597L19.6312 26.1029C18.8267 25.9889 18.0306 26.2478 17.4468 26.8126L15.6156 28.584C15.2707 28.9176 14.7303 28.9176 14.3853 28.584L12.5542 26.8126C12.0607 26.3352 11.4156 26.0765 10.7421 26.0765C10.6188 26.0765 10.4944 26.0852 10.3698 26.1028L7.84717 26.4596C7.37221 26.5268 6.93481 26.2092 6.85184 25.7365L6.41163 23.227C6.27124 22.4268 5.77917 21.7496 5.06158 21.3689L2.811 20.1747C2.38702 19.9498 2.22003 19.4359 2.43079 19.0047L3.54969 16.7157C3.90641 15.9859 3.90641 15.1488 3.54969 14.419L2.43079 12.13C2.22003 11.6988 2.38702 11.1849 2.811 10.96L5.06158 9.76585C5.77911 9.38505 6.27124 8.70783 6.41157 7.90768L6.85172 5.39824C6.93469 4.92551 7.37168 4.60793 7.84705 4.67508L10.3697 5.03191C11.1739 5.14576 11.9702 4.88695 12.5541 4.32217L14.3853 2.55077C14.7301 2.21714 15.2705 2.21714 15.6155 2.55077L17.4466 4.32217C18.0305 4.88701 18.8267 5.14576 19.6311 5.03191L22.1537 4.67508C22.6287 4.60787 23.0661 4.92551 23.149 5.39824L23.5892 7.90774C23.7296 8.70789 24.2216 9.38517 24.9392 9.76585L27.1898 10.96C27.6138 11.1849 27.7808 11.6988 27.57 12.13L26.4511 14.4189C26.0944 15.1487 26.0944 15.9859 26.4511 16.7157L27.57 19.0046C27.7808 19.4359 27.6138 19.9499 27.1898 20.1748Z" fill="white" fill-opacity="0.85"/>
<path d="M21.3219 9.246C20.9841 8.90815 20.4362 8.90815 20.0984 9.246L8.67917 20.6653C8.34132 21.0031 8.34132 21.5509 8.67917 21.8888C8.84809 22.0577 9.06952 22.1422 9.29088 22.1422C9.51225 22.1422 9.73373 22.0577 9.9026 21.8888L21.3218 10.4695C21.6598 10.1316 21.6598 9.58391 21.3219 9.246Z" fill="white" fill-opacity="0.85"/>
<path d="M11.5394 7.78117C9.79025 7.78117 8.36719 9.20423 8.36719 10.9534C8.36719 12.7025 9.79025 14.1255 11.5394 14.1255C13.2885 14.1255 14.7116 12.7025 14.7116 10.9534C14.7116 9.20423 13.2885 7.78117 11.5394 7.78117ZM11.5394 12.3952C10.7443 12.3952 10.0975 11.7484 10.0975 10.9533C10.0975 10.1582 10.7443 9.51144 11.5394 9.51144C12.3344 9.51144 12.9813 10.1582 12.9813 10.9533C12.9812 11.7484 12.3344 12.3952 11.5394 12.3952Z" fill="white" fill-opacity="0.85"/>
<path d="M18.4613 17.0093C16.7121 17.0093 15.2891 18.4323 15.2891 20.1815C15.2891 21.9306 16.7121 23.3537 18.4613 23.3537C20.2104 23.3537 21.6334 21.9306 21.6334 20.1815C21.6334 18.4323 20.2104 17.0093 18.4613 17.0093ZM18.4613 21.6233C17.6662 21.6233 17.0193 20.9765 17.0193 20.1815C17.0193 19.3864 17.6661 18.7396 18.4613 18.7396C19.2563 18.7396 19.9031 19.3864 19.9031 20.1815C19.9031 20.9765 19.2563 21.6233 18.4613 21.6233Z" fill="white" fill-opacity="0.85"/>

<defs>
<clipPath id="clip0">
<rect width="30" height="30" fill="white" transform="translate(0 0.567383)"/>
</clipPath>
</defs>
</svg>
