<svg width="15" height="26" viewBox="0 0 15 26" fill="none" xmlns="http://www.w3.org/2000/svg">
<path d="M15 17.5132C15 13.6901 11.7611 12.1377 8.57142 10.7369V5.69617C10.0929 5.7525 11.625 6.18692 13.0286 6.68633L13.8054 3.11675C11.8618 2.51983 10.1218 2.24683 8.57142 2.20567V0H6.42857V2.31183C2.25964 2.89142 0.0332144 5.53475 0.0332144 8.48683C0.0332144 12.6653 3.84536 14.04 6.42857 14.8991V20.0038C4.60071 19.9832 2.58 19.3321 0.973928 18.7016L0 22.2636C1.91464 23.2635 4.21178 23.7987 6.42857 23.8377V26H8.57142V23.7196C12.12 23.2169 15.0054 21.2355 15 17.5132ZM6.42857 5.98325V9.75542C4.7025 8.75767 4.63071 6.7535 6.42857 5.98325ZM8.57142 19.6343V15.7441C10.5439 16.8978 10.2911 18.8468 8.57142 19.6343Z" fill="#24D681"/>
</svg>
