<svg width="25" height="25" viewBox="0 0 25 25" fill="none" xmlns="http://www.w3.org/2000/svg">
<path d="M20.1921 16.8396C20.1921 13.1635 17.0778 11.6708 14.0108 10.324V5.47708C15.4737 5.53125 16.9469 5.94896 18.2965 6.42917L19.0434 2.99687C17.1746 2.42292 15.5015 2.16042 14.0108 2.12083V0H11.9504V2.22292C7.94178 2.78021 5.80098 5.32188 5.80098 8.16042C5.80098 12.1781 9.4665 13.5 11.9504 14.326V19.2344C10.1928 19.2146 8.24981 18.5885 6.70551 17.9823L5.76904 21.4073C7.61004 22.3687 9.81884 22.8833 11.9504 22.9208V25H14.0108V22.8073C17.4229 22.324 20.1973 20.4187 20.1921 16.8396V16.8396ZM11.9504 5.75312V9.38021C10.2907 8.42083 10.2217 6.49375 11.9504 5.75312V5.75312ZM14.0108 18.8792V15.1385C15.9074 16.2479 15.6643 18.1219 14.0108 18.8792Z" fill="#24D681"/>
</svg>
