<svg width="30" height="30" viewBox="0 0 30 30" fill="none" xmlns="http://www.w3.org/2000/svg">
<path d="M28.4615 5H1.5385C0.692285 5 0 5.69228 0 6.53844V23.4615C0 24.3076 0.692285 25 1.5385 25H28.4616C29.3077 25 30.0001 24.3078 30.0001 23.4615V6.53844C30 5.69228 29.3077 5 28.4615 5ZM27.8842 6.15377L15.885 15.1539C15.6693 15.3181 15.3381 15.4208 14.9999 15.4193C14.6619 15.4208 14.3307 15.3181 14.1149 15.1539L2.11576 6.15377H27.8842ZM21.4746 15.7477L28.0131 23.8247C28.0196 23.8328 28.0277 23.8389 28.0346 23.8463H1.96535C1.97227 23.8386 1.98035 23.8328 1.98691 23.8247L8.52539 15.7477C8.72572 15.5001 8.68775 15.137 8.43961 14.9362C8.19193 14.7358 7.82883 14.7738 7.62844 15.0215L1.15383 23.0196V6.87494L13.423 16.0769C13.8842 16.4203 14.4453 16.5715 14.9999 16.573C15.5537 16.5719 16.1153 16.4207 16.5768 16.0769L28.8459 6.87494V23.0195L22.3715 15.0215C22.1711 14.7738 21.8077 14.7358 21.5603 14.9362C21.3122 15.1365 21.2742 15.5001 21.4746 15.7477Z" fill="white" fill-opacity="0.85"/>

<defs>
<clipPath id="clip0">
<rect width="30" height="30" fill="white"/>
</clipPath>
</defs>
</svg>
