<svg width="30" height="31" viewBox="0 0 30 31" fill="none" xmlns="http://www.w3.org/2000/svg">
<path d="M29.5605 25.288C29.3178 25.288 29.1211 25.4848 29.1211 25.7275V28.6638C29.1211 28.7046 29.0879 28.7378 29.0471 28.7378H27.3773V22.3173C27.3773 22.0746 27.1806 21.8778 26.9378 21.8778C26.6951 21.8778 26.4984 22.0746 26.4984 22.3173V28.7379H23.2716L24.145 27.7771C24.2799 27.6287 24.3434 27.4179 24.3151 27.2133C24.3145 27.2089 24.3138 27.2045 24.3131 27.2001L23.3313 21.3996L23.512 21.1277L23.559 21.1611C23.7201 21.2755 23.9255 21.3172 24.1243 21.2676C24.3195 21.2188 24.483 21.0875 24.5729 20.9075V20.9074L25.5718 18.9052L27.8538 19.789C27.9438 19.8281 29.1209 20.3678 29.1209 21.7721V23.6766C29.1209 23.9194 29.3176 24.1161 29.5604 24.1161C29.8031 24.1161 29.9998 23.9193 29.9998 23.6767V21.7721C29.9998 19.7442 28.2605 19.0059 28.1865 18.9754C28.1837 18.9742 28.1809 18.9731 28.1781 18.9721L24.2923 17.4671V16.6667C24.8989 16.1788 25.3249 15.4755 25.4528 14.6737C25.7553 14.6358 26.036 14.5147 26.2689 14.3143C26.6029 14.0271 26.7945 13.6092 26.7945 13.1678C26.7945 12.8154 26.6722 12.4783 26.4533 12.2105V11.0247C26.4533 8.70405 24.5653 6.8161 22.2447 6.8161C21.2029 6.8161 20.249 7.19743 19.5132 7.82684C19.5037 7.4901 19.3832 7.16925 19.1731 6.91237V5.72661C19.1731 3.40595 17.2851 1.51801 14.9646 1.51801C12.6439 1.51801 10.756 3.40601 10.756 5.72661V6.94331C10.5447 7.19573 10.4266 7.50006 10.4161 7.82309C9.94668 7.4219 9.38483 7.11985 8.75864 6.95497C8.52356 6.89309 8.2835 7.03331 8.22168 7.26803C8.15987 7.50276 8.30002 7.74317 8.53475 7.80499C9.99449 8.18936 11.014 9.5134 11.014 11.0246V11.6819C10.995 11.678 10.9341 11.6675 10.9318 11.6671C10.9258 11.5431 10.8944 11.4673 10.8268 11.3701C10.7143 11.2084 10.5122 11.007 9.86242 10.3086C9.63086 10.0598 9.25633 10.0142 8.97203 10.2001C7.85905 10.9271 6.50688 11.2976 5.25204 11.224C4.84329 11.2 4.588 11.3796 4.47919 11.6739C4.46946 11.6755 4.36077 11.6974 4.35474 11.6989V11.0246C4.35474 9.56748 5.32845 8.25657 6.72257 7.83663C6.95495 7.76667 7.08661 7.52151 7.01665 7.28907C6.94663 7.05663 6.70112 6.92497 6.46903 6.99505C5.62118 7.2504 4.85905 7.78208 4.32321 8.492C3.76874 9.22641 3.47572 10.1022 3.47572 11.0247V12.2415C3.25435 12.506 3.13464 12.8274 3.13464 13.1678C3.13464 13.9201 3.68894 14.5762 4.47866 14.6741C4.60804 15.4571 5.03284 16.208 5.70327 16.7185V17.4674L1.82185 18.9722C1.8191 18.9732 1.81634 18.9743 1.81359 18.9755C1.73941 19.0059 0 19.7441 0 21.7721V28.6638C0 29.1893 0.427499 29.6168 0.953026 29.6168H14.4865C14.6756 29.6168 14.8516 29.5607 15 29.4653C15.1484 29.5607 15.3244 29.6168 15.5136 29.6168H29.0471C29.5726 29.6168 30.0001 29.1893 30.0001 28.6638V25.7275C30 25.4848 29.8033 25.288 29.5605 25.288ZM4.43566 13.7661C4.17802 13.6726 4.01343 13.4343 4.01343 13.1677C4.01343 12.9091 4.20093 12.6966 4.43566 12.5958V13.7661ZM24.7487 18.5864L23.8861 20.3153C23.886 20.3151 22.9279 19.6347 22.9143 19.625C23.3277 19.1148 23.1335 19.3545 23.9929 18.2937L24.7487 18.5864ZM22.2791 19.0128L21.1425 17.6099V17.1883C21.512 17.3161 21.9099 17.375 22.2845 17.3751C22.2846 17.3751 22.2847 17.3751 22.2847 17.3751H22.2848C22.6721 17.3751 23.0642 17.3016 23.4134 17.1701V17.6126L22.2791 19.0128ZM22.795 20.6185L22.6334 20.8618H21.9249L21.7633 20.6185L22.2792 20.2521L22.795 20.6185ZM14.9989 13.7147L13.8623 12.3118V11.8902C14.2303 12.0174 14.6278 12.0769 15.0043 12.077C15.0044 12.077 15.0045 12.077 15.0045 12.077H15.0046C15.3912 12.077 15.7833 12.0037 16.1332 11.872V12.3145L14.9989 13.7147ZM15.5148 15.3204L15.3531 15.5638H14.6447L14.483 15.3204L14.9989 14.9541L15.5148 15.3204ZM11.5381 9.33381C11.61 9.35338 11.6838 9.36668 11.7587 9.37594C11.8881 10.1589 12.3129 10.9098 12.9834 11.4203V12.1692L12.0868 12.5167C12.0348 12.4076 11.9699 12.3047 11.8928 12.2105V11.0247C11.8928 10.4283 11.7671 9.85506 11.5381 9.33381ZM17.3341 8.86846C17.3341 10.1548 16.2848 11.1979 15.0046 11.1979C13.5602 11.1979 12.5949 10.0785 12.5949 8.86846V6.80995C13.9826 6.8655 15.4242 6.45423 16.6028 5.72063C16.9991 6.14556 17.2348 6.39241 17.3342 6.50702C17.3341 7.60114 17.3341 8.0236 17.3341 8.86846ZM18.1726 9.37565C18.2472 9.36627 18.3206 9.35291 18.3921 9.3334C18.1638 9.85137 18.0361 10.4232 18.0361 11.0247V12.2414C17.9685 12.3221 17.9104 12.408 17.8623 12.4982L17.0122 12.169V11.3687C17.6187 10.8806 18.0447 10.1773 18.1726 9.37565ZM13.2835 12.9963L14.3623 14.3279L13.6266 14.8504C13.6262 14.8507 13.6259 14.851 13.6255 14.8513L13.392 15.0172L12.5293 13.2884L13.2835 12.9963ZM16.0103 13.8625L16.7127 12.9956L17.4685 13.2882L16.6059 15.0172L16.3719 14.851C16.3716 14.8508 16.3714 14.8506 16.3712 14.8504L15.6341 14.3269L16.0103 13.8625ZM16.2318 15.8296L16.2788 15.863C16.4431 15.9797 16.6493 16.0182 16.8441 15.9695C17.0393 15.9207 17.2028 15.7894 17.2927 15.6094V15.6093L18.0344 14.1228C18.2892 14.4369 18.6577 14.6279 19.0373 14.6753C19.1714 15.5156 19.6255 16.2326 20.2636 16.7185V17.4673L16.5274 18.9158L16.0511 16.1016L16.2318 15.8296ZM20.5637 18.2944L21.6425 19.626C21.1708 19.9611 20.6966 20.2979 20.6722 20.3153L19.8095 18.5865L20.5637 18.2944ZM24.6143 14.1666C24.6144 15.4215 23.5952 16.4961 22.2848 16.4961C20.7911 16.4961 19.8751 15.3262 19.8751 14.1666V12.1081C21.2529 12.1631 22.6964 11.7573 23.8829 11.0188C24.2792 11.4437 24.515 11.6906 24.6143 11.8052C24.6143 12.8992 24.6143 13.3218 24.6143 14.1666ZM25.9156 13.1677C25.9156 13.4348 25.7505 13.6726 25.4934 13.7661V12.5706C25.7592 12.6674 25.9156 12.9103 25.9156 13.1677ZM18.915 11.0246C18.915 9.18867 20.4088 7.69501 22.2447 7.69501C24.0806 7.69501 25.5742 9.18873 25.5742 11.0246V11.6819C25.5543 11.6777 25.4993 11.6682 25.492 11.6671C25.486 11.543 25.4544 11.467 25.387 11.3701C25.2715 11.2042 25.0717 11.0062 24.4226 10.3086C24.196 10.0653 23.8223 10.0105 23.5323 10.2001C22.4494 10.9074 21.0814 11.307 19.7796 11.2224C19.4139 11.1984 19.149 11.3775 19.0394 11.674C19.0296 11.6756 18.9211 11.6975 18.915 11.6989V11.0246H18.915ZM18.9962 12.5958V13.7655C18.7378 13.6723 18.5739 13.4334 18.5739 13.1677C18.5739 12.9091 18.7613 12.6967 18.9962 12.5958ZM18.6353 7.86961C18.6353 8.05465 18.5552 8.22967 18.4156 8.34973C18.3556 8.40129 18.2873 8.4409 18.2131 8.46791V7.27243C18.4759 7.36782 18.6353 7.6094 18.6353 7.86961ZM14.9644 2.39691C16.8004 2.39691 18.294 3.89058 18.294 5.72655V6.3838C18.2742 6.3797 18.2191 6.37014 18.2118 6.36903C18.2053 6.23444 18.1665 6.15171 18.0873 6.04466C17.9697 5.8854 17.7528 5.66644 17.1424 5.01042C16.912 4.76298 16.5377 4.71523 16.2521 4.90191C15.1085 5.64897 13.7213 6.01255 12.464 5.92249C12.1564 5.89923 11.8667 6.08509 11.7593 6.37577C11.7495 6.37735 11.6409 6.39927 11.6348 6.40073V5.72661H11.6348C11.6348 3.89058 13.1285 2.39691 14.9644 2.39691ZM11.7159 7.29768V8.46797C11.4582 8.37446 11.2936 8.13616 11.2936 7.86956C11.2936 7.61245 11.4797 7.39922 11.7159 7.29768ZM10.9328 12.5706C11.1787 12.6601 11.3366 12.8746 11.3522 13.1295C11.3719 13.413 11.1977 13.6693 10.9328 13.7655V12.5706ZM10.8921 14.6752C11.3066 14.6234 11.687 14.4049 11.9365 14.0689L12.7052 15.6093C12.7052 15.6093 12.7052 15.6093 12.7052 15.6094C12.795 15.7894 12.9586 15.9207 13.1537 15.9695C13.3467 16.0177 13.5531 15.9808 13.719 15.863L13.766 15.8296L13.9467 16.1015L13.4705 18.915L9.73199 17.4671V16.667H9.73193C10.3544 16.1652 10.7672 15.4561 10.8921 14.6752ZM7.71854 19.0128L6.582 17.6099V17.1883C6.94997 17.3156 7.34758 17.375 7.72405 17.3751C7.72411 17.3751 7.72422 17.3751 7.72428 17.3751C8.11721 17.3751 8.50862 17.2996 8.85291 17.1701V17.6126L7.71854 19.0128ZM8.23452 20.6185L8.07285 20.8618H7.3644L7.20274 20.6185L7.71866 20.2521L8.23452 20.6185ZM9.43235 18.2937L10.1882 18.5865L9.32559 20.3153L9.09156 20.1491C9.09133 20.1489 9.0911 20.1487 9.09086 20.1485L8.35381 19.625L9.43235 18.2937ZM5.31462 14.1666V12.1081C6.70967 12.1638 8.15219 11.7471 9.32242 11.0188C9.71494 11.4397 9.95436 11.6904 10.0538 11.8052C10.0538 12.8993 10.0538 13.3218 10.0538 14.1666C10.0538 15.4447 9.0117 16.4961 7.72428 16.4961C6.29091 16.4961 5.31462 15.3894 5.31462 14.1666ZM6.00321 18.2944L7.08204 19.626L6.34634 20.1485C6.34593 20.1488 6.34563 20.1491 6.34522 20.1494L6.11173 20.3153L5.24905 18.5865L6.00321 18.2944ZM3.50173 28.7379V22.3173C3.50173 22.0746 3.30503 21.8778 3.06228 21.8778C2.81953 21.8778 2.62283 22.0746 2.62283 22.3173V28.7379H0.953026C0.912127 28.7379 0.878963 28.7046 0.878963 28.6639V21.7721C0.878963 20.3606 2.06824 19.8226 2.14523 19.7893L4.42575 18.9052L5.42483 20.9074C5.42483 20.9074 5.42483 20.9074 5.42489 20.9075C5.51472 21.0875 5.67825 21.2188 5.87348 21.2676C6.06643 21.3158 6.27286 21.2789 6.43874 21.1611L6.48579 21.1277L6.66643 21.3996L5.6847 27.2001C5.68393 27.2045 5.68329 27.2089 5.68265 27.2133C5.6544 27.4178 5.71798 27.6286 5.85292 27.7772L6.72614 28.7379H3.50173V28.7379ZM6.56676 27.2557L7.5001 21.7408H7.93715L8.87055 27.2557L7.71866 28.5229L6.56676 27.2557ZM14.5605 28.6638C14.5605 28.7046 14.5273 28.7379 14.4865 28.7379H12.8168V22.3173C12.8168 22.0746 12.6201 21.8778 12.3773 21.8778C12.1346 21.8778 11.9379 22.0746 11.9379 22.3173V28.7379H8.71112L9.58445 27.7771C9.71934 27.6287 9.78291 27.4179 9.75461 27.2133C9.75397 27.2089 9.75332 27.2045 9.75256 27.2001L8.77082 21.3996L8.95147 21.1277L8.99852 21.1611C9.11612 21.2446 9.25533 21.2882 9.3966 21.2882C9.65436 21.2882 9.89441 21.1438 10.0124 20.9075V20.9074L11.0114 18.9053L13.2933 19.789C13.9585 20.0784 14.5604 20.8246 14.5604 21.7721V28.6638H14.5605ZM15 20.1752C14.8179 19.8818 14.5756 19.6104 14.2834 19.3788L14.7804 16.4427H15.2174L15.7146 19.3803C15.4146 19.6185 15.1755 19.8924 15 20.1752ZM18.0622 28.7379V22.3173C18.0622 22.0746 17.8655 21.8778 17.6227 21.8778C17.38 21.8778 17.1833 22.0746 17.1833 22.3173V28.7379H15.5135C15.4727 28.7379 15.4395 28.7046 15.4395 28.6639V21.7721C15.4395 21.2496 15.6033 20.7685 15.9523 20.3642C16.185 20.0973 16.4936 19.8813 16.7058 19.7893L18.9863 18.9051L19.9854 20.9074C19.9854 20.9074 19.9854 20.9074 19.9855 20.9075C20.0753 21.0875 20.2388 21.2188 20.434 21.2676C20.627 21.3158 20.8334 21.2789 20.9993 21.1611L21.0463 21.1277L21.227 21.3996L20.2452 27.2001C20.2445 27.2045 20.2438 27.2089 20.2432 27.2133C20.2149 27.4178 20.2785 27.6286 20.4134 27.7772L21.2867 28.7379H18.0622V28.7379ZM21.1272 27.2557L22.0606 21.7408H22.4977L23.4311 27.2557L22.2791 28.5229L21.1272 27.2557Z" fill="white" fill-opacity="0.85"/>

<defs>
<clipPath id="clip0">
<rect width="30" height="30" fill="white" transform="translate(0 0.567383)"/>
</clipPath>
</defs>
</svg>
