<svg width="48" height="27" viewBox="0 0 48 27" fill="none" xmlns="http://www.w3.org/2000/svg">
<path d="M30 13.4054C30 16.4059 27.314 18.8378 24 18.8378C20.686 18.8378 18 16.4059 18 13.4054C18 12.8391 18.5869 12.5209 19.1521 12.5574C21.3135 12.697 23.1916 11.0666 23.1399 9.11389C23.1253 8.55867 23.4446 7.97298 24 7.97298C27.314 7.97298 30 10.4067 30 13.4054ZM24.03 0.729736C10.8885 0.729736 2.45413 9.66964 0.457939 12.0278C0.175988 12.3608 0.174189 12.8323 0.44536 13.1742C2.49605 15.7598 11.4687 26.0811 24.03 26.0811C37.6043 26.0811 45.8155 15.6903 47.6212 13.1484C47.8576 12.8155 47.8433 12.3785 47.5847 12.0625C45.6997 9.75882 37.455 0.729736 24.03 0.729736ZM24 22.4595C18.478 22.4595 14 18.4069 14 13.4054C14 8.40576 18.478 4.35136 24 4.35136C29.524 4.35136 34 8.40576 34 13.4054C34 18.4069 29.524 22.4595 24 22.4595Z" fill="#343A40"/>
</svg>
