<svg width="30" height="30" viewBox="0 0 30 30" fill="none" xmlns="http://www.w3.org/2000/svg">
<g clip-path="url(#clip0)">
<path d="M15 6.05859C9.26818 6.05859 4.07027 9.19452 0.234735 14.2881C-0.0782449 14.7054 -0.0782449 15.2884 0.234735 15.7057C4.07027 20.8054 9.26818 23.9414 15 23.9414C20.7318 23.9414 25.9297 20.8054 29.7653 15.7119C30.0782 15.2946 30.0782 14.7116 29.7653 14.2942C25.9297 9.19453 20.7318 6.05859 15 6.05859ZM15.4112 21.2964C11.6063 21.5357 8.46425 18.3998 8.70359 14.5888C8.89997 11.4467 11.4468 8.89996 14.5888 8.70358C18.3937 8.46424 21.5357 11.6002 21.2964 15.4112C21.0939 18.5471 18.5471 21.0939 15.4112 21.2964ZM15.2209 18.3875C13.1712 18.5164 11.4774 16.8288 11.6125 14.7791C11.7168 13.0853 13.0914 11.7168 14.7852 11.6063C16.8349 11.4774 18.5287 13.1651 18.3937 15.2148C18.2832 16.9147 16.9086 18.2832 15.2209 18.3875Z" fill="white"/>
</g>
<defs>
<clipPath id="clip0">
<rect width="30" height="30" fill="white"/>
</clipPath>
</defs>
</svg>
