<svg width="17" height="17" viewBox="0 0 17 17" fill="none" xmlns="http://www.w3.org/2000/svg">
<path fill-rule="evenodd" clip-rule="evenodd" d="M12.1191 3.55325C13.593 3.89527 14.1569 4.75713 14.8637 5.94336H12.1191V3.55325ZM3.50552 6.04297C3.79411 6.04297 4.00357 6.18227 4.00357 6.50781C4.00357 6.78239 3.78139 7.00508 3.50695 7.00586H0.498047C0.222954 7.00586 0 7.22894 0 7.50391C0 7.779 0.222954 8.00195 0.498047 8.00195H4.98047C5.25816 8.00195 5.48046 8.22478 5.48046 8.5C5.48046 8.77509 5.25751 8.99805 4.98241 8.99805H0.498047C0.222954 8.99805 0 9.221 0 9.49609C0 9.77119 0.222954 9.99414 0.498047 9.99414H1.59375V11.4883C1.59375 11.7634 1.8167 11.9863 2.0918 11.9863H3.09295C3.27142 12.8654 4.04819 13.5137 4.96387 13.5137C5.87955 13.5137 6.65632 12.8654 6.83479 11.9863H11.8918C12.0702 12.8654 12.847 13.5137 13.7627 13.5137C14.6784 13.5137 15.4551 12.8654 15.6336 11.9863H16.502C16.777 11.9863 17 11.7634 17 11.4883V8.5C17 7.03867 15.4586 6.94166 15.4572 6.93945H11.6211C11.346 6.93945 11.123 6.7165 11.123 6.44141V3.45312H2.0918C1.8167 3.45312 1.59375 3.67608 1.59375 3.95117V5.04688H0.996094C0.721001 5.04688 0.498047 5.26983 0.498047 5.54492C0.498047 5.82001 0.721001 6.04297 0.996094 6.04297H3.50552ZM14.4083 10.9588C14.7649 11.3154 14.7649 11.8937 14.4083 12.2503C13.8348 12.8238 12.8496 12.4158 12.8496 11.6045C12.8496 10.7934 13.8348 10.3853 14.4083 10.9588ZM5.60951 10.9588C5.96606 11.3154 5.96606 11.8937 5.60951 12.2503C5.03598 12.8238 4.05078 12.4158 4.05078 11.6045C4.05078 10.7934 5.03598 10.3853 5.60951 10.9588Z" fill="#00B2D8"/>
</svg>
