<svg width="25" height="25" viewBox="0 0 25 25" fill="none" xmlns="http://www.w3.org/2000/svg">
<path d="M23.6281 9.78542L21.6698 9.53646C21.5083 9.03958 21.3094 8.56042 21.0771 8.10521L22.2865 6.54792C22.776 5.91771 22.7188 5.02812 22.1594 4.48646L20.5187 2.84583C19.9719 2.28125 19.0823 2.225 18.451 2.71354L16.8958 3.92292C16.4406 3.69062 15.9615 3.49167 15.4635 3.33021L15.2146 1.375C15.1208 0.590625 14.4552 0 13.6667 0H11.3333C10.5448 0 9.87917 0.590625 9.78542 1.37187L9.53646 3.33021C9.03854 3.49167 8.55937 3.68958 8.10417 3.92292L6.54792 2.71354C5.91875 2.225 5.02917 2.28125 4.48646 2.84062L2.84583 4.48021C2.28125 5.02812 2.22396 5.91771 2.71354 6.54896L3.92292 8.10521C3.68958 8.56042 3.49167 9.03958 3.33021 9.53646L1.375 9.78542C0.590625 9.87917 0 10.5448 0 11.3333V13.6667C0 14.4552 0.590625 15.1208 1.37187 15.2146L3.33021 15.4635C3.49167 15.9604 3.69062 16.4396 3.92292 16.8948L2.71354 18.4521C2.22396 19.0823 2.28125 19.9719 2.84062 20.5135L4.48125 22.1542C5.02917 22.7177 5.91771 22.774 6.54896 22.2854L8.10521 21.076C8.56042 21.3094 9.03958 21.5083 9.53646 21.6687L9.78542 23.6229C9.87917 24.4094 10.5448 25 11.3333 25H13.6667C14.4552 25 15.1208 24.4094 15.2146 23.6281L15.4635 21.6698C15.9604 21.5083 16.4396 21.3094 16.8948 21.0771L18.4521 22.2865C19.0823 22.776 19.9719 22.7188 20.5135 22.1594L22.1542 20.5187C22.7187 19.9708 22.776 19.0823 22.2865 18.451L21.0771 16.8948C21.3104 16.4396 21.5094 15.9604 21.6698 15.4635L23.624 15.2146C24.4083 15.1208 24.999 14.4552 24.999 13.6667V11.3333C25 10.5448 24.4094 9.87917 23.6281 9.78542ZM12.5 17.7083C9.62812 17.7083 7.29167 15.3719 7.29167 12.5C7.29167 9.62812 9.62812 7.29167 12.5 7.29167C15.3719 7.29167 17.7083 9.62812 17.7083 12.5C17.7083 15.3719 15.3719 17.7083 12.5 17.7083Z" fill="white"/>

<defs>
<clipPath id="clip0">
<rect width="25" height="25" rx="10" fill="white"/>
</clipPath>
</defs>
</svg>
