<svg width="496" height="480" viewBox="0 0 496 480" fill="none" xmlns="http://www.w3.org/2000/svg">
<path d="M410 480H70C44.636 480 24 464.253 24 444.897V260.21C24 253.467 31.163 248 40 248C48.837 248 56 253.467 56 260.21V444.897C56 450.788 62.28 455.581 70 455.581H410C417.72 455.581 424 450.788 424 444.897V260.21C424 253.467 431.163 248 440 248C448.837 248 456 253.467 456 260.21V444.897C456 464.253 435.365 480 410 480Z" fill="white"/>
<path d="M480 247.958C475.905 247.958 471.811 246.396 468.687 243.271L269.698 44.284C253.323 27.908 226.678 27.908 210.302 44.284L28.1272 227.5C21.8792 233.749 11.7482 233.749 5.50023 227.5C-0.748774 221.252 -0.748774 211.121 5.50023 204.873L187.675 21.656C216.527 -7.19603 263.474 -7.19603 292.325 21.656L491.313 220.644C497.562 226.893 497.562 237.023 491.313 243.271C488.19 246.396 484.095 247.958 480 247.958Z" fill="white"/>
<path d="M304 479.983H176C167.163 479.983 160 472.819 160 463.983V321.983C160 294.413 182.43 271.983 210 271.983H270C297.57 271.983 320 294.413 320 321.983V463.983C320 472.819 312.837 479.983 304 479.983ZM192 447.983H288V321.983C288 312.058 279.925 303.983 270 303.983H210C200.075 303.983 192 312.058 192 321.983V447.983Z" fill="white"/>
</svg>
