<svg width="51" height="51" viewBox="0 0 51 51" fill="none" xmlns="http://www.w3.org/2000/svg">
<circle cx="25.5" cy="25.5" r="25.5" fill="#45467F"/>
<circle cx="26" cy="26" r="15" fill="white" fill-opacity="0.9"/>
<path d="M25.4992 6C14.731 6 6 14.731 6 25.4992C6 36.2673 14.731 45 25.4992 45C36.2673 45 45 36.2673 45 25.4992C45 14.731 36.2673 6 25.4992 6ZM29.5585 36.2211C28.5548 36.6173 27.7558 36.9177 27.1566 37.1257C26.559 37.3337 25.864 37.4377 25.0733 37.4377C23.8583 37.4377 22.9124 37.1406 22.2389 36.5479C21.5653 35.9553 21.2302 35.2042 21.2302 34.2913C21.2302 33.9364 21.255 33.5732 21.3045 33.2034C21.3557 32.8337 21.4366 32.4177 21.5472 31.9505L22.8034 27.5131C22.914 27.0872 23.0098 26.6828 23.0857 26.3064C23.1617 25.9267 23.198 25.5784 23.198 25.2615C23.198 24.6969 23.0808 24.3007 22.848 24.0778C22.6119 23.855 22.1679 23.746 21.5059 23.746C21.1823 23.746 20.8489 23.7939 20.5072 23.8946C20.1688 23.9986 19.8749 24.0927 19.6339 24.1851L19.9657 22.8183C20.7878 22.4832 21.5752 22.1959 22.3263 21.9582C23.0775 21.7172 23.7873 21.5983 24.4559 21.5983C25.6626 21.5983 26.5937 21.8922 27.249 22.4733C27.9011 23.056 28.2296 23.8137 28.2296 24.7448C28.2296 24.9379 28.2065 25.278 28.1619 25.7633C28.1173 26.2503 28.0331 26.6943 27.911 27.1021L26.6613 31.5262C26.559 31.8811 26.4682 32.2872 26.3857 32.7412C26.3048 33.1952 26.2651 33.5418 26.2651 33.7746C26.2651 34.3623 26.3956 34.7634 26.6597 34.9764C26.9205 35.1893 27.3778 35.2966 28.0249 35.2966C28.3303 35.2966 28.672 35.2422 29.0583 35.1365C29.4413 35.0309 29.7186 34.9368 29.8936 34.8559L29.5585 36.2211ZM29.3373 18.2637C28.7545 18.8052 28.053 19.0759 27.2325 19.0759C26.4137 19.0759 25.7072 18.8052 25.1195 18.2637C24.5351 17.7223 24.2396 17.0636 24.2396 16.2943C24.2396 15.5267 24.5368 14.8664 25.1195 14.32C25.7072 13.7719 26.4137 13.4996 27.2325 13.4996C28.053 13.4996 28.7562 13.7719 29.3373 14.32C29.92 14.8664 30.2122 15.5267 30.2122 16.2943C30.2122 17.0653 29.92 17.7223 29.3373 18.2637Z" fill="#45467F"/>
</svg>
