<svg width="24" height="24" viewBox="0 0 24 24" fill="none" xmlns="http://www.w3.org/2000/svg">
<path d="M12.451 17.337L10 20H8V22H6V24H0V22.707L7.06 15.647C6.846 15.387 6.647 15.114 6.461 14.832L0 21.293V19L6.865 12.051C7.945 14.475 9.96 16.387 12.451 17.337V17.337ZM24 8C24 12.418 20.418 16 16 16C11.582 16 8 12.418 8 8C8 3.582 11.582 0 16 0C20.418 0 24 3.582 24 8ZM21 5C21 3.896 20.104 3 19 3C17.896 3 17 3.896 17 5C17 6.104 17.896 7 19 7C20.104 7 21 6.104 21 5Z" fill="black"/>
<defs>
<clipPath id="clip0">
<rect width="24" height="24" fill="white"/>
</clipPath>
</defs>
</svg>
