<svg width="25" height="25" viewBox="0 0 25 25" fill="none" xmlns="http://www.w3.org/2000/svg">
<path fill-rule="evenodd" clip-rule="evenodd" d="M12.5208 0C19.4104 0.0114583 25 5.60729 25 12.5C25 19.399 19.4 25 12.5 25C5.60104 25 0 19.399 0 12.5C0 5.60729 5.59062 0.0114583 12.4802 0H12.5208ZM16.3687 16.6667H8.63229C9.29792 21.1104 10.9677 23.9583 12.5 23.9583C14.0333 23.9583 15.7031 21.1104 16.3687 16.6667ZM23.176 16.6667H17.4229C16.9792 19.776 16.0469 22.2937 14.8344 23.7198C18.6562 22.9281 21.7833 20.2302 23.176 16.6667ZM7.57812 16.6667H1.82396C3.21771 20.2302 6.34479 22.9281 10.1667 23.7198C8.95417 22.2937 8.02187 19.776 7.57812 16.6667ZM7.45 9.375H1.475C1.13021 10.5896 0.703125 12.9052 1.475 15.625H7.45C7.25417 13.7354 7.22604 11.5365 7.45 9.375ZM16.5031 9.375H8.49792C8.29479 11.25 8.26354 13.4656 8.49792 15.625H16.5031C16.7073 13.7385 16.7365 11.5312 16.5031 9.375ZM23.526 9.375H17.551C17.6156 9.99167 17.8719 12.5198 17.551 15.625H23.526C24.2979 12.9042 23.8708 10.5885 23.526 9.375ZM10.1667 1.28021C6.34479 2.07187 3.21771 4.76979 1.82396 8.33333H7.57812C8.02187 5.22396 8.95417 2.70521 10.1667 1.28021ZM16.3687 8.33333C15.7031 3.88958 14.0333 1.04167 12.5 1.04167C10.9677 1.04167 9.29792 3.88958 8.63229 8.33333H16.3687ZM14.8344 1.28021C16.0469 2.70521 16.9792 5.22396 17.4229 8.33333H23.176C21.7833 4.76979 18.6562 2.07187 14.8344 1.28021Z" fill="#E6E6E6"/>
</svg>
