<svg width="141" height="141" viewBox="0 0 141 141" fill="none" xmlns="http://www.w3.org/2000/svg">
<path d="M70.5 0C52.0055 0 35.25 14.9989 35.25 33.4993C35.25 51.9938 50.5367 74.0779 70.5 105.75C90.4633 74.0779 105.75 51.9938 105.75 33.4993C105.75 14.9989 89.0004 0 70.5 0ZM70.5 47C64.0081 47 58.75 41.7419 58.75 35.25C58.75 28.7581 64.0081 23.5 70.5 23.5C76.9919 23.5 82.25 28.7581 82.25 35.25C82.25 41.7419 76.9919 47 70.5 47ZM134.426 32.3066C134.426 23.5411 130.084 15.6804 123.252 10.2871L127.605 5.86913C135.801 12.3375 141 21.7669 141 32.3066C141 42.8464 135.801 52.2816 127.605 58.75L123.252 54.3261C130.084 48.9387 134.426 41.0721 134.426 32.3066V32.3066ZM114.562 45.5195L118.91 49.9316C124.38 45.6252 127.846 39.3331 127.846 32.3066C127.846 25.286 124.38 18.988 118.91 14.6816L114.562 19.0938C118.657 22.3309 121.266 27.0485 121.266 32.3066C121.266 37.5648 118.657 42.2883 114.562 45.5195ZM17.7484 54.3261L13.395 58.75C5.19937 52.2816 0 42.8464 0 32.3066C0 21.7669 5.19937 12.3375 13.395 5.86913L17.7484 10.2871C10.9157 15.6804 6.57412 23.5411 6.57412 32.3066C6.57412 41.0721 10.9157 48.9387 17.7484 54.3261ZM19.7341 32.3066C19.7341 27.0426 22.3367 22.3309 26.4375 19.0938L22.09 14.6816C16.6204 18.988 13.1541 25.286 13.1541 32.3066C13.1541 39.3331 16.6204 45.6252 22.09 49.9316L26.4375 45.5195C22.3426 42.2883 19.7341 37.5706 19.7341 32.3066V32.3066ZM117.5 117.5C117.5 130.478 96.4616 141 70.5 141C44.5384 141 23.5 130.478 23.5 117.5C23.5 108.088 34.592 99.9925 50.572 96.2384L57.3518 106.954C54.9959 107.354 52.6165 107.748 50.431 108.376C30.973 113.952 30.1446 120.766 50.3076 126.6C62.5746 130.143 78.3725 130.155 90.6924 126.595C111.954 120.443 109.281 113.229 89.1179 107.988C87.3789 107.536 85.4695 107.295 83.6189 106.984L90.4104 96.2442C106.408 99.9925 117.5 108.088 117.5 117.5V117.5Z" fill="white"/>
</svg>
