<svg width="35" height="35" viewBox="0 0 35 35" fill="none" xmlns="http://www.w3.org/2000/svg">
<path d="M25.7212 31.9919C25.7212 32.7472 25.1102 33.3594 24.3567 33.3594H5.45805C2.44838 33.3594 0 30.9059 0 27.8904V12.1679C0 11.0144 0.354346 9.9111 1.02512 8.9768C1.46518 8.36385 2.3178 8.22475 2.92957 8.6654C3.54133 9.1063 3.68045 9.96085 3.24039 10.5738C2.9058 11.0399 2.72903 11.591 2.72903 12.1679V27.8904C2.72903 29.3983 3.95335 30.6247 5.45805 30.6247H24.3567C25.1102 30.6247 25.7212 31.2369 25.7212 31.9919ZM10.7075 16.7678C9.96415 16.6391 9.25895 17.1384 9.1305 17.8824C9.0477 18.3624 9.0058 18.8547 9.0058 19.3457C9.0058 24.0572 12.8315 27.8904 17.5341 27.8904C18.0935 27.8904 18.6532 27.8358 19.1977 27.7277C19.9368 27.5811 20.4175 26.8617 20.2712 26.1211C20.1248 25.3802 19.4068 24.8987 18.6677 25.0455C18.2973 25.1188 17.916 25.156 17.5341 25.156C14.3365 25.156 11.7348 22.5496 11.7348 19.3457C11.7348 19.0104 11.7634 18.6749 11.8197 18.348C11.9482 17.6039 11.4501 16.8965 10.7075 16.7678ZM34.6004 34.5995C34.3339 34.8665 33.9847 35 33.6354 35C33.2861 35 32.9368 34.8665 32.6704 34.5995L0.467833 2.3341C-0.065155 1.80007 -0.065155 0.93428 0.467833 0.400521C1.00082 -0.133507 1.86466 -0.133507 2.39764 0.400521L8.36975 6.38425C8.5548 6.2304 8.699 6.02815 8.78255 5.79645L9.25495 4.48573C9.83865 2.86572 11.3861 1.77733 13.1052 1.77733H21.8223C23.5754 1.77733 25.1327 2.89461 25.6977 4.55743L26.1105 5.77265C26.2988 6.32675 26.8179 6.69915 27.4022 6.69915H29.4735C32.4832 6.69915 34.9316 9.1526 34.9316 12.1679V21.0545C34.9316 21.8098 34.3209 22.4217 33.567 22.4217C32.8135 22.4217 32.2025 21.8098 32.2025 21.0545V12.1679C32.2025 10.6602 30.9785 9.4335 29.4735 9.4335H27.4022C25.6494 9.4335 24.0918 8.3165 23.527 6.6537L23.1139 5.4385C22.9257 4.88411 22.4066 4.51168 21.8223 4.51168H13.1052C12.5321 4.51168 12.0162 4.87448 11.8216 5.4144L11.3492 6.7251C11.1281 7.3389 10.765 7.88305 10.3014 8.3197L13.6919 11.7168C14.8783 11.1164 16.1915 10.8007 17.5341 10.8007C22.2365 10.8007 26.0622 14.6339 26.0622 19.3457C26.0622 20.6944 25.7482 22.0075 25.1484 23.1957L31.5761 29.6359C31.9769 29.1535 32.2025 28.5429 32.2025 27.8904C32.2025 27.1354 32.8135 26.5232 33.567 26.5232C34.3209 26.5232 34.9316 27.1354 34.9316 27.8904C34.9316 29.2843 34.4181 30.5838 33.5118 31.5753L34.6004 32.6659C35.1332 33.1999 35.1332 34.0657 34.6004 34.5995ZM15.7781 13.8071L23.0619 21.1051C23.2405 20.5405 23.3332 19.9485 23.3332 19.3457C23.3332 16.1418 20.7318 13.535 17.5341 13.535C16.9336 13.535 16.3421 13.6279 15.7781 13.8071Z" fill="white"/>
</svg>
