<svg width="70" height="70" viewBox="0 0 70 70" fill="none" xmlns="http://www.w3.org/2000/svg">
<g clip-path="url(#clip0)">
<path d="M51.4425 63.9839C51.4425 65.4945 50.2205 66.7188 48.7134 66.7188H10.9161C4.89677 66.7188 0 61.8119 0 55.7808V24.3358C0 22.0289 0.708693 19.8222 2.05024 17.9536C2.93037 16.7277 4.63561 16.4495 5.85914 17.3308C7.08266 18.2126 7.3609 19.9217 6.48078 21.1476C5.8116 22.0798 5.45806 23.1821 5.45806 24.3358V55.7808C5.45806 58.7966 7.90671 61.2495 10.9161 61.2495H48.7134C50.2205 61.2495 51.4425 62.4738 51.4425 63.9839ZM21.4151 33.5357C19.9283 33.2783 18.5179 34.2768 18.261 35.7649C18.0954 36.7249 18.0116 37.7095 18.0116 38.6914C18.0116 48.1145 25.663 55.7808 35.0683 55.7808C36.1871 55.7808 37.3065 55.6717 38.3955 55.4555C39.8737 55.1623 40.835 53.7234 40.5424 52.2422C40.2497 50.7605 38.8136 49.7974 37.3354 50.0911C36.5946 50.2377 35.832 50.3121 35.0683 50.3121C28.673 50.3121 23.4697 45.0992 23.4697 38.6914C23.4697 38.0209 23.5268 37.3499 23.6395 36.696C23.8964 35.2079 22.9003 33.7931 21.4151 33.5357V33.5357ZM69.2009 69.199C68.6679 69.733 67.9694 70 67.2708 70C66.5723 70 65.8737 69.733 65.3408 69.199L0.935667 4.6682C-0.13031 3.60014 -0.13031 1.86856 0.935667 0.801043C2.00164 -0.267014 3.72932 -0.267014 4.79529 0.801043L16.7395 12.7685C17.1096 12.4608 17.398 12.0563 17.5651 11.5929L18.5099 8.97146C19.6773 5.73144 22.7722 3.55466 26.2104 3.55466H43.6447C47.1508 3.55466 50.2654 5.78923 51.3955 9.11487L52.2211 11.5453C52.5976 12.6535 53.6358 13.3983 54.8044 13.3983H58.947C64.9664 13.3983 69.8632 18.3052 69.8632 24.3358V42.1091C69.8632 43.6196 68.6418 44.8434 67.1341 44.8434C65.627 44.8434 64.4051 43.6196 64.4051 42.1091V24.3358C64.4051 21.3205 61.957 18.867 58.947 18.867H54.8044C51.2988 18.867 48.1837 16.633 47.0541 13.3074L46.2279 10.877C45.8514 9.76823 44.8132 9.02337 43.6447 9.02337H26.2104C25.0643 9.02337 24.0325 9.74896 23.6432 10.8288L22.6985 13.4502C22.2563 14.6778 21.53 15.7661 20.6028 16.6394L27.3838 23.4336C29.7566 22.2328 32.3831 21.6014 35.0683 21.6014C44.473 21.6014 52.1245 29.2678 52.1245 38.6914C52.1245 41.3888 51.4964 44.0151 50.2969 46.3914L63.1522 59.2718C63.9538 58.307 64.4051 57.0859 64.4051 55.7808C64.4051 54.2708 65.627 53.0465 67.1341 53.0465C68.6418 53.0465 69.8632 54.2708 69.8632 55.7808C69.8632 58.5687 68.8362 61.1677 67.0236 63.1507L69.2009 65.3318C70.2664 66.3999 70.2664 68.1314 69.2009 69.199V69.199ZM31.5563 27.6143L46.1238 42.2102C46.4811 41.0811 46.6664 39.897 46.6664 38.6914C46.6664 32.2836 41.4636 27.0701 35.0683 27.0701C33.8672 27.0701 32.6843 27.2558 31.5563 27.6143V27.6143Z" fill="white"/>
</g>
<defs>
<clipPath id="clip0">
<rect width="70" height="70" fill="white"/>
</clipPath>
</defs>
</svg>
