<svg width="50" height="50" viewBox="0 0 50 50" fill="none" xmlns="http://www.w3.org/2000/svg">
<path d="M24.9999 0C11.1875 0 0 11.1875 0 24.9999C0 38.8124 11.1875 49.9999 24.9999 49.9999C38.8124 49.9999 50 38.8125 50 24.9999C50 11.1874 38.8125 0 24.9999 0ZM5.00004 24.9999C5.00004 13.95 13.95 4.99992 25.0001 4.99992C29.6251 4.99992 33.8626 6.58746 37.25 9.21245L9.21245 37.25C6.58746 33.8625 5.00004 29.625 5.00004 24.9999ZM24.9999 45C20.3749 45 16.1374 43.4124 12.75 40.7874L40.7874 12.75C43.4124 16.1375 45 20.375 45 24.9999C45 36.05 36.05 45 24.9999 45Z" fill="white"/>
</svg>
