<svg width="24" height="24" viewBox="0 0 24 24" fill="none" xmlns="http://www.w3.org/2000/svg">
<path fill-rule="evenodd" clip-rule="evenodd" d="M13.403 24H0V2H3C4.231 2 5.181 0.916 6 0H14C14.821 0.916 15.772 2 17 2H20V11.15C19.515 11.052 19.013 11 18.5 11L18 11.016V4H14L12 6H8.103L6 4H2V22H11.866C12.263 22.751 12.785 23.427 13.403 24V24ZM18.5 13C21.535 13 24 15.464 24 18.5C24 21.536 21.535 24 18.5 24C15.464 24 13 21.536 13 18.5C13 15.464 15.464 13 18.5 13ZM18.5 15C20.431 15 22 16.568 22 18.5C22 20.432 20.431 22 18.5 22C16.568 22 15 20.432 15 18.5C15 16.568 16.568 15 18.5 15ZM21 19H18V16H19V18H21V19ZM5.849 14.948L4.8 13.964L4 14.787L5.864 16.563L9 13.371L8.185 12.563L5.849 14.948V14.948ZM12 16H10V15H12V16ZM14 14H10V13H14V14ZM5.849 9.975L4.8 8.992L4 9.815L5.864 11.591L9 8.399L8.185 7.591L5.849 9.975ZM14 11H10V10H14V11ZM14 9H10V8H14V9ZM9 3C9 3.552 9.449 4 10 4C10.553 4 11 3.552 11 3C11 2.448 10.553 2 10 2C9.449 2 9 2.448 9 3Z" fill="black"/>
</svg>
