<svg width="25" height="25" viewBox="0 0 25 25" fill="none" xmlns="http://www.w3.org/2000/svg">
<path d="M21.5217 1.71681C20.2617 0.45898 18.2212 0.45898 16.9611 1.71681L15.8195 2.86467L3.66716 15.0106L3.64133 15.0366C3.63508 15.0429 3.63508 15.0495 3.62842 15.0495C3.6155 15.0689 3.59613 15.088 3.58342 15.1074C3.58342 15.1139 3.57676 15.1139 3.57676 15.1203C3.56385 15.1397 3.5576 15.1526 3.54448 15.172C3.53823 15.1784 3.53823 15.1847 3.53177 15.1914C3.52531 15.2107 3.51886 15.2236 3.5122 15.243C3.5122 15.2493 3.50594 15.2493 3.50594 15.2559L0.809703 23.3638C0.730609 23.5946 0.790737 23.8503 0.96446 24.0216C1.08653 24.142 1.25117 24.2094 1.42248 24.2088C1.49249 24.2076 1.5619 24.1967 1.62889 24.1765L9.73052 21.4738C9.73678 21.4738 9.73678 21.4738 9.74343 21.4676C9.76381 21.4615 9.78338 21.4529 9.80134 21.4416C9.80639 21.441 9.81082 21.4387 9.81446 21.4353C9.83362 21.4224 9.85945 21.4093 9.87882 21.3964C9.89799 21.3836 9.91756 21.3643 9.93693 21.3514C9.94339 21.3447 9.94964 21.3447 9.94964 21.3384C9.9563 21.332 9.96921 21.3257 9.97567 21.3126L23.2696 8.01866C24.5275 6.75862 24.5275 4.71812 23.2696 3.45828L21.5217 1.71681ZM9.52411 19.9579L5.03475 15.4688L16.2711 4.23247L20.7604 8.72163L9.52411 19.9579ZM4.4024 16.662L8.32439 20.5838L2.43515 22.5446L4.4024 16.662ZM22.3603 7.11554L21.6765 7.8058L17.1869 3.31623L17.8773 2.62618C18.6326 1.87157 19.8567 1.87157 20.6121 2.62618L22.3665 4.38056C23.1161 5.13922 23.1133 6.36053 22.3603 7.11554Z" fill="white"/>
</svg>
