<svg width="25" height="25" viewBox="0 0 25 25" fill="none" xmlns="http://www.w3.org/2000/svg">
<path d="M20.6289 4.83398V3.66211C20.6289 1.64282 18.9861 0 16.9668 0H7.98242C5.96313 0 4.32031 1.64282 4.32031 3.66211V4.83398H20.6289Z" fill="white"/>
<path d="M5.78516 15.5762V21.5332V22.8027V23.5352C5.78516 24.3441 6.44097 25 7.25 25H17.6992C18.5083 25 19.1641 24.3441 19.1641 23.5352V22.8027V21.5332V15.5762H5.78516ZM14.4277 21.8262H10.5215C10.117 21.8262 9.78906 21.4982 9.78906 21.0938C9.78906 20.6893 10.117 20.3613 10.5215 20.3613H14.4277C14.8322 20.3613 15.1602 20.6893 15.1602 21.0938C15.1602 21.4982 14.8322 21.8262 14.4277 21.8262ZM14.4277 18.7012H10.5215C10.117 18.7012 9.78906 18.3732 9.78906 17.9688C9.78906 17.5643 10.117 17.2363 10.5215 17.2363H14.4277C14.8322 17.2363 15.1602 17.5643 15.1602 17.9688C15.1602 18.3732 14.8322 18.7012 14.4277 18.7012Z" fill="white"/>
<path d="M21.3125 6.29883H3.68555C1.66626 6.29883 0.0234375 7.94165 0.0234375 9.96094V15.8203C0.0234375 17.8396 1.66626 19.4824 3.68555 19.4824H4.32031V15.5762H3.88086C3.47637 15.5762 3.14844 15.2482 3.14844 14.8438C3.14844 14.4393 3.47637 14.1113 3.88086 14.1113H5.05273H19.8965H21.0684C21.4729 14.1113 21.8008 14.4393 21.8008 14.8438C21.8008 15.2482 21.4729 15.5762 21.0684 15.5762H20.6289V19.4824H21.3125C23.3318 19.4824 24.9746 17.8396 24.9746 15.8203V9.96094C24.9746 7.94165 23.3318 6.29883 21.3125 6.29883ZM6.22461 10.8887H3.88086C3.47637 10.8887 3.14844 10.5607 3.14844 10.1562C3.14844 9.75176 3.47637 9.42383 3.88086 9.42383H6.22461C6.6291 9.42383 6.95703 9.75176 6.95703 10.1562C6.95703 10.5607 6.6291 10.8887 6.22461 10.8887Z" fill="white"/>
</svg>
