<svg width="30" height="31" viewBox="0 0 30 31" fill="none" xmlns="http://www.w3.org/2000/svg">
<path d="M27.7099 13.6924H26.2504C26.1673 13.3914 25.9884 13.1257 25.7409 12.9354C25.4933 12.7452 25.1905 12.6406 24.8783 12.6377H23.3203V8.8277C23.3221 8.75642 23.3048 8.68597 23.2704 8.62355C23.2359 8.56113 23.1855 8.509 23.1243 8.4725L12.1334 2.12434C12.0715 2.08833 12.0011 2.06937 11.9295 2.06937C11.8578 2.06937 11.7874 2.08833 11.7255 2.12434L0.731252 8.4725C0.669044 8.50856 0.61744 8.56038 0.581642 8.62274C0.545844 8.6851 0.527116 8.75579 0.527346 8.8277V21.5241C0.527348 21.5961 0.5463 21.6668 0.582299 21.7292C0.618298 21.7915 0.670074 21.8433 0.732424 21.8793L11.7278 28.2274C11.7901 28.2634 11.8609 28.2824 11.9329 28.2824C12.0067 28.2824 12.0793 28.2635 12.1438 28.2274L17.9297 24.8901V27.3027C17.9291 27.5324 17.9741 27.7599 18.062 27.9721C18.1499 28.1843 18.2791 28.3769 18.442 28.5389C18.6049 28.7008 18.7982 28.8288 19.0109 28.9155C19.2236 29.0022 19.4514 29.0459 19.6811 29.0439H27.7099C27.9402 29.0461 28.1686 29.0027 28.3821 28.9162C28.5955 28.8297 28.7897 28.7019 28.9535 28.54C29.1174 28.3782 29.2476 28.1855 29.3367 27.9732C29.4258 27.7608 29.472 27.5329 29.4727 27.3027V15.4609C29.4724 14.9929 29.2868 14.5441 28.9564 14.2127C28.6261 13.8813 28.1779 13.6942 27.7099 13.6924ZM24.8929 13.458C25.0508 13.458 25.2023 13.5207 25.3139 13.6324C25.4256 13.744 25.4883 13.8955 25.4883 14.0534V14.0931C25.4883 14.251 25.4256 14.4024 25.3139 14.5141C25.2023 14.6258 25.0508 14.6885 24.8929 14.6885H22.5094C22.3515 14.6885 22.2001 14.6258 22.0884 14.5141C21.9768 14.4024 21.9141 14.251 21.9141 14.0931V14.0534C21.9141 13.8955 21.9768 13.744 22.0884 13.6324C22.2001 13.5207 22.3515 13.458 22.5094 13.458H24.8929ZM11.9329 2.95315L16.5016 5.59092L6.32731 11.4651L1.75858 8.82729L11.9329 2.95315ZM11.543 27.1618L1.34766 21.2872V9.53721L11.543 15.4118V27.1618ZM11.9329 14.7014L7.14762 11.9386L17.322 6.06453L22.1074 8.82729L11.9329 14.7014ZM17.9297 15.4609V23.943L12.3633 27.1618V15.4118L22.5 9.53721V12.6377H22.5127C22.2005 12.6406 21.8977 12.7451 21.6502 12.9354C21.4026 13.1257 21.2238 13.3914 21.1406 13.6924H19.6811C19.2143 13.6946 18.7676 13.8822 18.4391 14.2139C18.1107 14.5455 17.9274 14.9941 17.9297 15.4609ZM28.6523 27.3027C28.6518 27.4253 28.6269 27.5465 28.579 27.6594C28.5312 27.7723 28.4614 27.8746 28.3737 27.9602C28.2861 28.0459 28.1822 28.1133 28.0683 28.1586C27.9543 28.2038 27.8325 28.2259 27.7099 28.2236H19.6811C19.5591 28.2257 19.438 28.2033 19.3247 28.1579C19.2115 28.1125 19.1085 28.0449 19.0217 27.9591C18.935 27.8733 18.8663 27.771 18.8196 27.6583C18.7729 27.5456 18.7493 27.4247 18.75 27.3027V15.4609C18.7488 15.3374 18.7719 15.215 18.818 15.1005C18.8642 14.986 18.9324 14.8818 19.0189 14.7937C19.1054 14.7056 19.2084 14.6355 19.322 14.5872C19.4357 14.539 19.5577 14.5137 19.6811 14.5127H21.1566C21.2446 14.803 21.4243 15.057 21.6688 15.2366C21.9133 15.4162 22.2094 15.5117 22.5127 15.5088H24.8783C25.1817 15.5117 25.4778 15.4162 25.7223 15.2366C25.9667 15.057 26.1464 14.803 26.2344 14.5127H27.7099C27.9604 14.5143 28.2 14.6149 28.3766 14.7925C28.5532 14.9701 28.6523 15.2104 28.6523 15.4609V27.3027Z" fill="white" fill-opacity="0.85"/>
<path d="M20.1533 19.6104H20.5826C20.6914 19.6104 20.7957 19.5671 20.8726 19.4902C20.9495 19.4133 20.9927 19.309 20.9927 19.2002C20.9927 19.0914 20.9495 18.9871 20.8726 18.9102C20.7957 18.8333 20.6914 18.79 20.5826 18.79H20.5664V17.6768H21.6977C21.7234 17.7592 21.7755 17.831 21.846 17.881C21.9164 17.931 22.0013 17.9566 22.0876 17.9537C22.1965 17.954 22.3011 17.9111 22.3784 17.8344C22.4558 17.7577 22.4995 17.6534 22.5 17.5445V17.2685C22.4991 17.1591 22.455 17.0544 22.3774 16.9773C22.2998 16.9001 22.1949 16.8567 22.0854 16.8564H20.1533C20.0995 16.8567 20.0462 16.8676 19.9966 16.8885C19.947 16.9093 19.9021 16.9398 19.8642 16.9781C19.8264 17.0163 19.7965 17.0617 19.7762 17.1115C19.756 17.1614 19.7457 17.2147 19.7461 17.2685V19.2007C19.7458 19.2543 19.7561 19.3076 19.7764 19.3572C19.7967 19.4069 19.8266 19.4521 19.8645 19.4902C19.9023 19.5283 19.9473 19.5585 19.9969 19.5791C20.0464 19.5997 20.0996 19.6103 20.1533 19.6104Z" fill="white" fill-opacity="0.85"/>
<path d="M20.1562 23.3604H22.0898C22.1986 23.3604 22.3029 23.3171 22.3799 23.2402C22.4568 23.1633 22.5 23.059 22.5 22.9502V21.0166C22.5 20.9078 22.4568 20.8035 22.3799 20.7266C22.3029 20.6497 22.1986 20.6064 22.0898 20.6064H20.1562C20.0475 20.6064 19.9431 20.6497 19.8662 20.7266C19.7893 20.8035 19.7461 20.9078 19.7461 21.0166V22.9502C19.7461 23.059 19.7893 23.1633 19.8662 23.2402C19.9431 23.3171 20.0475 23.3604 20.1562 23.3604ZM20.5664 21.4268H21.6797V22.54H20.5664V21.4268Z" fill="white" fill-opacity="0.85"/>
<path d="M20.5827 26.29H20.5664V25.1768H21.6756C21.6777 25.2846 21.722 25.3874 21.799 25.4629C21.876 25.5385 21.9795 25.5809 22.0874 25.581C22.1953 25.5811 22.2989 25.5389 22.376 25.4635C22.4532 25.3881 22.4977 25.2854 22.5 25.1776V24.7824C22.4996 24.6715 22.4561 24.5651 22.3788 24.4856C22.3015 24.4062 22.1963 24.3598 22.0854 24.3564H20.1533C20.0432 24.3601 19.939 24.4068 19.8629 24.4864C19.7868 24.566 19.7449 24.6722 19.7461 24.7824V26.7145C19.7461 26.7675 19.7566 26.8199 19.7772 26.8687C19.7978 26.9175 19.828 26.9616 19.866 26.9986C19.9039 27.0355 19.9489 27.0644 19.9983 27.0836C20.0476 27.1028 20.1004 27.1119 20.1533 27.1104H20.5827C20.6914 27.1104 20.7958 27.0671 20.8727 26.9902C20.9496 26.9133 20.9928 26.809 20.9928 26.7002C20.9928 26.5914 20.9496 26.4871 20.8727 26.4102C20.7958 26.3333 20.6914 26.29 20.5827 26.29Z" fill="white" fill-opacity="0.85"/>
<path d="M23.0285 17.3599L21.8273 18.561L21.4619 18.1956C21.4238 18.1575 21.3786 18.1273 21.3289 18.1067C21.2791 18.0861 21.2258 18.0755 21.1719 18.0755C21.118 18.0755 21.0647 18.0861 21.0149 18.1067C20.9652 18.1273 20.9199 18.1575 20.8819 18.1956C20.8438 18.2337 20.8136 18.2789 20.7929 18.3287C20.7723 18.3784 20.7617 18.4318 20.7617 18.4856C20.7617 18.5395 20.7723 18.5928 20.7929 18.6426C20.8136 18.6924 20.8438 18.7376 20.8819 18.7757L21.5373 19.4311C21.5754 19.4692 21.6206 19.4994 21.6704 19.52C21.7202 19.5406 21.7735 19.5513 21.8274 19.5513C21.8812 19.5513 21.9346 19.5406 21.9844 19.52C22.0341 19.4994 22.0793 19.4692 22.1174 19.4311L23.6087 17.9398C23.6857 17.8629 23.7289 17.7585 23.7289 17.6497C23.7289 17.541 23.6857 17.4366 23.6087 17.3597C23.5318 17.2828 23.4275 17.2396 23.3187 17.2396C23.2099 17.2396 23.1056 17.2828 23.0287 17.3597L23.0285 17.3599Z" fill="white" fill-opacity="0.85"/>
<path d="M23.0285 24.9331L21.8273 26.1342L21.4619 25.7688C21.4238 25.7307 21.3786 25.7005 21.3289 25.6799C21.2791 25.6593 21.2258 25.6486 21.1719 25.6486C21.118 25.6486 21.0647 25.6593 21.0149 25.6799C20.9652 25.7005 20.9199 25.7307 20.8819 25.7688C20.8438 25.8069 20.8136 25.8521 20.7929 25.9019C20.7723 25.9516 20.7617 26.005 20.7617 26.0588C20.7617 26.1127 20.7723 26.166 20.7929 26.2158C20.8136 26.2656 20.8438 26.3108 20.8819 26.3489L21.5373 27.0043C21.5754 27.0424 21.6206 27.0726 21.6704 27.0932C21.7202 27.1138 21.7735 27.1244 21.8274 27.1244C21.8812 27.1244 21.9346 27.1138 21.9844 27.0932C22.0341 27.0726 22.0793 27.0424 22.1174 27.0043L23.6087 25.513C23.6857 25.436 23.7289 25.3317 23.7289 25.2229C23.7289 25.1141 23.6857 25.0098 23.6087 24.9329C23.5318 24.856 23.4275 24.8127 23.3187 24.8127C23.2099 24.8127 23.1056 24.856 23.0287 24.9329L23.0285 24.9331Z" fill="white" fill-opacity="0.85"/>
<path d="M27.2382 17.8525H24.6621C24.5533 17.8525 24.449 17.8958 24.3721 17.9727C24.2952 18.0496 24.252 18.1539 24.252 18.2627C24.252 18.3715 24.2952 18.4758 24.3721 18.5527C24.449 18.6296 24.5533 18.6729 24.6621 18.6729H27.2382C27.347 18.6729 27.4513 18.6296 27.5283 18.5527C27.6052 18.4758 27.6484 18.3715 27.6484 18.2627C27.6484 18.1539 27.6052 18.0496 27.5283 17.9727C27.4513 17.8958 27.347 17.8525 27.2382 17.8525Z" fill="white" fill-opacity="0.85"/>
<path d="M27.2382 21.6025H24.6621C24.5533 21.6025 24.449 21.6458 24.3721 21.7227C24.2952 21.7996 24.252 21.9039 24.252 22.0127C24.252 22.1215 24.2952 22.2258 24.3721 22.3027C24.449 22.3796 24.5533 22.4229 24.6621 22.4229H27.2382C27.347 22.4229 27.4513 22.3796 27.5283 22.3027C27.6052 22.2258 27.6484 22.1215 27.6484 22.0127C27.6484 21.9039 27.6052 21.7996 27.5283 21.7227C27.4513 21.6458 27.347 21.6025 27.2382 21.6025Z" fill="white" fill-opacity="0.85"/>
<path d="M27.2382 25.3525H24.6621C24.5533 25.3525 24.449 25.3958 24.3721 25.4727C24.2952 25.5496 24.252 25.6539 24.252 25.7627C24.252 25.8715 24.2952 25.9758 24.3721 26.0527C24.449 26.1296 24.5533 26.1729 24.6621 26.1729H27.2382C27.347 26.1729 27.4513 26.1296 27.5283 26.0527C27.6052 25.9758 27.6484 25.8715 27.6484 25.7627C27.6484 25.6539 27.6052 25.5496 27.5283 25.4727C27.4513 25.3958 27.347 25.3525 27.2382 25.3525Z" fill="white" fill-opacity="0.85"/>
</svg>
