<svg width="42" height="42" viewBox="0 0 42 42" fill="none" xmlns="http://www.w3.org/2000/svg">
<path d="M42 37.8805L31.0541 27.0217C33.1128 24.213 34.33 20.7585 34.33 17.0275C34.33 7.63875 26.6299 0 17.1641 0C7.70003 0 0 7.63875 0 17.0275C0 26.418 7.70003 34.055 17.1641 34.055C20.7522 34.055 24.0844 32.9577 26.8434 31.0835L37.8475 42L42 37.8805ZM5.03457 17.0275C5.03457 10.3915 10.4766 4.99275 17.1659 4.99275C23.8551 4.99275 29.2972 10.3915 29.2972 17.0275C29.2972 23.6635 23.8551 29.0623 17.1659 29.0623C10.4749 29.0623 5.03457 23.6635 5.03457 17.0275Z" fill="white"/>
</svg>
