<svg width="30" height="30" viewBox="0 0 30 30" fill="none" xmlns="http://www.w3.org/2000/svg">

<path d="M29.6334 27.8662L21.1023 19.3351C22.7548 17.2938 23.7497 14.7001 23.7497 11.8751C23.7497 5.32771 18.4223 0.000244141 11.8748 0.000244141C5.32741 0.000244141 0 5.32765 0 11.8751C0 18.4225 5.32747 23.75 11.8749 23.75C14.6999 23.75 17.2936 22.755 19.3348 21.1025L27.866 29.6337C28.1097 29.8774 28.4297 30 28.7497 30C29.0698 30 29.3898 29.8774 29.6335 29.6337C30.1222 29.145 30.1222 28.3549 29.6334 27.8662ZM11.8749 21.25C6.70494 21.25 2.5 17.0451 2.5 11.8751C2.5 6.70512 6.70494 2.50018 11.8749 2.50018C17.0449 2.50018 21.2498 6.70512 21.2498 11.8751C21.2498 17.0451 17.0448 21.25 11.8749 21.25Z" fill="white"/>

<defs>
<clipPath id="clip0">
<rect width="30" height="30" fill="white"/>
</clipPath>
</defs>
</svg>
