<svg width="14" height="14" viewBox="0 0 14 14" fill="none" xmlns="http://www.w3.org/2000/svg">
<g clip-path="url(#clip0)">
<path d="M7.47525 9.32918C7.23781 9.12034 6.85162 9.15181 6.64278 9.38925L4.44004 11.8723V1.94854C4.44004 1.62242 4.17113 1.35352 3.84501 1.35352C3.51889 1.35352 3.24998 1.62242 3.24998 1.94854V11.8723L1.04724 9.38925C0.809797 9.15181 0.452209 9.12034 0.21477 9.32918C-0.0226691 9.56662 -0.0541369 9.9242 0.154695 10.1616L3.39874 13.7919C3.6419 14.0923 4.07101 14.0465 4.26267 13.7919L7.53533 10.1616C7.74416 9.92707 7.71555 9.53801 7.47525 9.32918Z" fill="white"/>
<path d="M13.8459 3.85342L10.6304 0.223182C10.3444 -0.0657499 9.98678 -0.0829142 9.73789 0.223182L6.46524 3.85342C6.25641 4.09086 6.28788 4.47706 6.52532 4.68589C6.89149 4.97768 7.26052 4.77743 7.35778 4.62581L9.56053 2.14272V12.0379C9.56053 12.364 9.82944 12.6329 10.1556 12.6329C10.4817 12.6329 10.7506 12.3955 10.7506 12.0665V2.14558L12.9533 4.62868C13.1908 4.86611 13.5484 4.89758 13.7858 4.68875C14.0232 4.44845 14.0547 4.09086 13.8459 3.85342Z" fill="white"/>
</g>
<defs>
<clipPath id="clip0">
<rect width="14" height="14" fill="white"/>
</clipPath>
</defs>
</svg>
