<svg width="30" height="30" viewBox="0 0 30 30" fill="none" xmlns="http://www.w3.org/2000/svg">
<g clip-path="url(#clip0)">
<path d="M8.99992 3.00034H2.5V4.00033H8.99992V3.00034Z" fill="white" fill-opacity="0.85"/>
<path d="M8.99992 5.00031H2.5V6.00029H8.99992V5.00031Z" fill="white" fill-opacity="0.85"/>
<path d="M6.99994 7.00029H2.5V8.00028H6.99994V7.00029Z" fill="white" fill-opacity="0.85"/>
<path d="M6.99994 9.00026H2.5V10.0002H6.99994V9.00026Z" fill="white" fill-opacity="0.85"/>
<path d="M29.9996 29H0V30H29.9996V29Z" fill="white" fill-opacity="0.85"/>
<path d="M28.9486 4.27683L26.9487 0.276875C26.8254 0.0297536 26.5252 -0.0706202 26.2781 0.0526908C26.2779 0.0527533 26.2778 0.0528158 26.2777 0.0528783L22.2777 2.05285C22.0306 2.17629 21.9303 2.47672 22.0537 2.72385C22.1772 2.97097 22.4776 3.07128 22.7247 2.94784L25.6217 1.50036L24.8312 3.75733C21.3567 13.6527 12.4075 20.5949 1.95898 21.5001L2.04398 22.5001C12.8862 21.5609 22.1721 14.3561 25.7757 4.08733L26.5827 1.78136L28.0537 4.72382C28.1771 4.97094 28.4775 5.07125 28.7247 4.94782C28.9718 4.82438 29.0721 4.52401 28.9486 4.27683Z" fill="white" fill-opacity="0.85"/>
<path d="M5.99995 24.0001H2.49999C2.22387 24.0001 2 24.2239 2 24.5001V27.5C2 27.7762 2.22387 28 2.49999 28H5.99995C6.27607 28 6.49994 27.7762 6.49994 27.5V24.5001C6.49994 24.2239 6.27607 24.0001 5.99995 24.0001ZM5.49996 27H2.99999V25.0001H5.49996V27Z" fill="white" fill-opacity="0.85"/>
<path d="M11.5 22.5001H7.99999C7.72387 22.5001 7.5 22.724 7.5 23.0001V27.5C7.5 27.7761 7.72387 28 7.99999 28H11.5C11.7761 28 12 27.7761 12 27.5V23.0001C12 22.724 11.7761 22.5001 11.5 22.5001ZM11 27H8.49999V23.5001H11V27Z" fill="white" fill-opacity="0.85"/>
<path d="M16.9999 20.0001H13.5C13.2239 20.0001 13 20.224 13 20.5001V27.5C13 27.7761 13.2239 28 13.5 28H16.9999C17.2761 28 17.4999 27.7761 17.4999 27.5V20.5001C17.4999 20.224 17.2761 20.0001 16.9999 20.0001ZM16.4999 27H14V21.0001H16.4999V27Z" fill="white" fill-opacity="0.85"/>
<path d="M22.5 16.5002H19C18.7239 16.5002 18.5 16.724 18.5 17.0002V27.5C18.5 27.7762 18.7239 28 19 28H22.5C22.7761 28 22.9999 27.7762 22.9999 27.5V17.0002C22.9999 16.724 22.7761 16.5002 22.5 16.5002ZM22 27H19.5V17.5002H22V27Z" fill="white" fill-opacity="0.85"/>
<path d="M27.9999 9.50026H24.5C24.2239 9.50026 24 9.72413 24 10.0003V27.5C24 27.7762 24.2239 28 24.5 28H27.9999C28.2761 28 28.4999 27.7762 28.4999 27.5V10.0003C28.4999 9.72413 28.2761 9.50026 27.9999 9.50026ZM27.5 27.0001H25V10.5002H27.5V27.0001Z" fill="white" fill-opacity="0.85"/>
</g>
<defs>
<clipPath id="clip0">
<rect width="30" height="30" fill="white"/>
</clipPath>
</defs>
</svg>
