<svg width="30" height="30" viewBox="0 0 30 30" fill="none" xmlns="http://www.w3.org/2000/svg">
<path d="M15 0C6.72867 0 0 6.72867 0 15C0 23.2713 6.72867 30 15 30C23.2713 30 30 23.2713 30 15C30 6.72867 23.2713 0 15 0Z" fill="#2FA3E3"/>
<path d="M22.6028 11.8214L14.4778 19.9462C14.234 20.19 13.914 20.3126 13.5941 20.3126C13.2741 20.3126 12.9541 20.19 12.7103 19.9462L8.64792 15.8838C8.15903 15.3951 8.15903 14.605 8.64792 14.1163C9.13658 13.6275 9.92645 13.6275 10.4153 14.1163L13.5941 17.2951L20.8354 10.0539C21.3241 9.56503 22.114 9.56503 22.6028 10.0539C23.0915 10.5426 23.0915 11.3325 22.6028 11.8214V11.8214Z" fill="#FAFAFA"/>
</svg>
