<svg width="30" height="31" viewBox="0 0 30 31" fill="none" xmlns="http://www.w3.org/2000/svg">
<g clip-path="url(#clip0)">
<path d="M22.7149 27.7559C22.5526 27.4762 22.1942 27.3809 21.9141 27.5432L21.8915 27.5562C21.6117 27.7186 21.5165 28.0771 21.6788 28.357C21.7875 28.5443 21.9841 28.649 22.1861 28.649C22.2858 28.649 22.3871 28.6234 22.4796 28.5697L22.5021 28.5567C22.782 28.3943 22.8772 28.0358 22.7149 27.7559Z" fill="white" fill-opacity="0.85"/>
<path d="M27.9899 8.07295C25.987 4.60391 22.7532 2.12252 18.884 1.08577C15.0149 0.0490085 10.9736 0.581098 7.50455 2.58389C4.03556 4.58668 1.55412 7.82059 0.517419 11.6897C-0.51928 15.5588 0.012751 19.6002 2.01554 23.0692C3.81209 26.1809 6.66748 28.5458 10.0557 29.7281C11.6618 30.2885 13.3385 30.5682 15.0126 30.5682C16.8328 30.5682 18.6497 30.2374 20.3672 29.5773C20.6692 29.4613 20.8199 29.1223 20.7038 28.8202C20.5877 28.5182 20.2486 28.3673 19.9467 28.4836C15.3752 30.2407 10.4263 29.4423 6.72883 26.667L7.25377 23.9268L7.50672 23.8447C8.46256 23.5341 8.98756 22.5038 8.67713 21.5479L8.4915 20.9767C8.44855 20.8445 8.44879 20.7048 8.49209 20.5727C8.65492 20.0763 8.59674 19.5332 8.33242 19.0825C8.0681 18.6318 7.6225 18.3158 7.10974 18.2156L5.78728 17.9572L3.23564 16.0172C3.08277 15.9009 2.88267 15.867 2.69998 15.9263L1.20607 16.4115C1.17437 15.8772 1.1739 15.3431 1.20402 14.8118C1.26297 14.8667 1.30134 14.904 1.32496 14.9285C1.3542 14.9772 1.39041 15.0218 1.43283 15.0605C1.55482 15.1716 1.66533 15.222 1.89736 15.222C2.11058 15.2219 2.42623 15.1794 2.94742 15.1024C3.44172 15.0294 3.93343 14.9471 3.9383 14.9462C4.13535 14.9132 4.30193 14.782 4.38033 14.5983C4.45873 14.4146 4.43804 14.2036 4.32549 14.0384L3.60707 12.9847L4.63609 12.2489C4.70465 12.1998 4.76183 12.1366 4.80373 12.0635L6.39883 9.27881L7.04177 8.58987C7.69879 7.88569 7.88629 6.85543 7.51937 5.96504C7.30293 5.43987 6.92488 5.00264 6.45203 4.70797C6.96414 4.30538 7.51017 3.93366 8.09049 3.59868C10.2197 2.36938 12.5433 1.77366 14.8424 1.75086L13.7962 3.06331L9.91638 4.42344C9.75883 4.47864 9.63226 4.59852 9.56863 4.75286L8.48512 7.3795C8.40818 7.56612 8.43261 7.77905 8.54986 7.94334L10.1324 10.1601C9.90572 10.3668 9.68511 10.668 9.42162 11.042C9.30607 11.206 9.19697 11.3608 9.12156 11.4477C9.05599 11.5232 8.99037 11.5971 8.92533 11.6702C8.58496 12.0531 8.23304 12.4491 7.98302 12.9781C7.4333 14.1417 7.54433 15.4942 8.27277 16.5078C8.97713 17.4877 10.1383 17.9859 11.3777 17.8401C11.5796 17.8165 11.7679 17.7699 11.9501 17.7247C12.4524 17.6005 12.6115 17.5881 12.7727 17.7389C12.8511 17.8123 12.8583 17.8262 12.8567 18.0751C12.8556 18.2336 12.8543 18.4307 12.9089 18.6557C12.9964 19.0158 13.2225 19.2647 13.4042 19.4646C13.4945 19.5639 13.5879 19.6667 13.6166 19.7356C13.7994 20.1736 13.7198 20.4161 13.5454 20.9475C13.5305 20.993 13.5153 21.0394 13.5 21.087C13.2351 21.907 13.6043 22.7204 13.9301 23.4379C14.0359 23.671 14.1358 23.8909 14.2013 24.0853C14.7281 25.6486 15.123 26.0066 15.44 26.1507C15.606 26.2262 15.7778 26.2593 15.9513 26.2592C16.7959 26.2592 17.6773 25.4749 18.0822 24.9778C18.3365 24.6656 18.3991 24.353 18.4448 24.1247C18.4676 24.0111 18.4855 23.9214 18.5198 23.8629C18.5721 23.7732 18.6338 23.7037 18.712 23.6157C18.869 23.4388 19.0646 23.2187 19.1912 22.8198C19.2874 22.5167 19.3573 22.4424 19.5888 22.1959C19.6291 22.153 19.6721 22.1072 19.7182 22.0571C20.4986 21.2079 20.2976 20.5592 20.0847 19.8723C19.9056 19.2944 20.2189 18.9248 20.9764 18.2194C21.3048 17.9136 21.6443 17.5974 21.9067 17.2175C22.0216 17.0512 22.371 16.5454 22.1547 16.044C21.9428 15.5524 21.4042 15.4698 20.9714 15.4034C20.8005 15.3772 20.5422 15.3376 20.46 15.2839C20.0975 15.0468 19.8757 14.5522 19.6612 14.0738C19.6185 13.9786 19.5763 13.8846 19.5336 13.7933C19.4574 13.6306 19.3813 13.4336 19.3008 13.2252C19.0876 12.6734 18.846 12.0481 18.4347 11.6121C18.0651 11.2204 17.3682 11.0318 16.7534 10.8652C16.5466 10.8093 16.3514 10.7564 16.2227 10.7089C16.1148 10.6691 15.9978 10.6619 15.8861 10.6881C15.5869 10.7582 15.4002 10.8355 15.2615 10.9466C15.2249 10.976 15.1165 11.0724 15.0529 11.2273C14.8384 11.1243 14.5435 10.9278 14.3619 10.8068C14.3582 10.8042 14.3544 10.8017 14.3506 10.7992C14.4118 10.5544 14.3564 10.3579 14.2984 10.2352C13.9711 9.5429 12.8846 9.59709 12.6703 9.61532C12.5485 9.62551 12.3945 9.63096 12.2315 9.6367C11.9756 9.64579 11.6927 9.65598 11.4128 9.68739L11.4272 9.64719C11.6397 9.05522 12.205 8.65749 12.8339 8.65749H13.167C13.4905 8.65749 13.7529 8.3951 13.7529 8.07161C13.7529 7.74811 13.4905 7.48573 13.167 7.48573H12.8339C11.9002 7.48573 11.0451 7.97715 10.5659 8.75065L9.69197 7.52645L10.5518 5.44233L14.343 4.11319C14.4469 4.07674 14.5386 4.0117 14.6073 3.92551L16.2926 1.81151C20.5989 2.22114 24.6524 4.63555 26.9752 8.65872C27.5939 9.73034 28.0516 10.8585 28.3558 12.0124L28.1075 12.2339C27.7833 12.5231 27.5933 12.9381 27.586 13.3723C27.586 13.377 27.5859 13.3817 27.5857 13.3864L27.181 12.2736C27.1207 12.1075 27.0319 11.9553 26.9172 11.821L26.1954 10.9759C25.9155 10.6483 25.5081 10.4605 25.0773 10.4605H24.1938C23.8802 10.4605 23.5935 10.6323 23.4456 10.9087C23.2976 11.1852 23.3138 11.519 23.4878 11.7799L23.5772 11.9141C23.0062 12.4051 22.3459 12.798 21.6428 13.0629L20.4316 10.743V10.2255C20.4316 10.0654 20.3661 9.91215 20.2503 9.8017L19.1597 8.76055C19.0995 8.70313 19.0278 8.65918 18.9493 8.63159L17.9676 8.28659C17.6621 8.17913 17.3278 8.33985 17.2206 8.64506C17.1133 8.9504 17.2738 9.28479 17.579 9.39208L18.4418 9.6953L19.2599 10.4762V10.8868C19.2599 10.9812 19.2827 11.0742 19.3264 11.158L20.8427 14.0623C20.979 14.3236 21.2885 14.443 21.5647 14.3408L22.0062 14.1781C23.0319 13.7998 23.9826 13.1913 24.7555 12.4184C24.953 12.2209 24.9837 11.9116 24.8287 11.6792L24.7976 11.6323H25.0773C25.1648 11.6323 25.2476 11.6705 25.3045 11.7371L26.0263 12.5822C26.0495 12.6094 26.0675 12.6402 26.0798 12.674L26.8764 14.8644C26.9448 15.0526 27.1047 15.1928 27.3 15.2362C27.3422 15.2455 27.3847 15.25 27.427 15.25C27.5806 15.25 27.7302 15.1895 27.8412 15.0784L28.2204 14.6993C28.4605 14.4591 28.6258 14.1552 28.7048 13.8184C29.2912 18.5179 27.4485 23.3793 23.5535 26.4364C23.2989 26.6361 23.2545 27.0044 23.4544 27.2589C23.6541 27.5135 24.0223 27.558 24.277 27.3581C27.089 25.151 29.0208 21.9943 29.7166 18.4694C30.4189 14.9104 29.8057 11.2182 27.9899 8.07295ZM2.77041 17.1355L5.1864 18.9724C5.25783 19.0268 5.34068 19.0639 5.42869 19.0811L6.88486 19.3656C7.07072 19.4019 7.22576 19.5119 7.32156 19.6752C7.41736 19.8385 7.43752 20.0275 7.37857 20.2074C7.25728 20.5773 7.2567 20.9686 7.37699 21.3387L7.56261 21.9099C7.67353 22.2512 7.48592 22.6193 7.14461 22.7302L6.56236 22.9194C6.35922 22.9854 6.20816 23.1567 6.16802 23.3663L5.69939 25.8126C4.66914 24.8696 3.76457 23.7552 3.03033 22.4834C2.13455 20.932 1.57486 19.2773 1.32818 17.604L2.77041 17.1355ZM6.18508 7.79041L5.49584 8.52887C5.46508 8.56186 5.43818 8.59831 5.41574 8.63745L3.85058 11.37L2.45951 12.3647C2.20041 12.55 2.13677 12.9082 2.31619 13.1714L2.83644 13.9345C2.53656 13.9791 2.26744 14.0159 2.08849 14.0355C2.0541 14.0025 2.01812 13.969 1.98092 13.9344C1.84164 13.8051 1.6481 13.6323 1.35959 13.3798C1.83543 10.4347 3.25457 7.66016 5.48652 5.54229C5.9139 5.67688 6.26465 5.99569 6.43597 6.41153C6.62875 6.87922 6.53019 7.42051 6.18508 7.79041ZM10.9622 10.9922C11.2236 10.8451 11.8301 10.8236 12.273 10.8079C12.4504 10.8016 12.6181 10.7956 12.7679 10.7831C12.847 10.7765 12.9347 10.7777 13.0175 10.7841C12.9805 10.8791 12.9685 10.9832 12.9846 11.0866C13.0128 11.2684 13.1249 11.4263 13.287 11.5131C13.397 11.5719 13.55 11.674 13.7119 11.7819C14.1698 12.0872 14.6889 12.4332 15.1765 12.4643C15.62 12.493 15.8667 12.2403 15.9724 12.1327C15.9808 12.1241 15.9888 12.1156 15.9972 12.1078C16.0568 12.0593 16.1126 11.9942 16.154 11.9158C16.2477 11.9425 16.3462 11.9692 16.4471 11.9966C16.794 12.0905 17.4398 12.2653 17.5824 12.4165C17.8359 12.6852 18.0334 13.1965 18.2077 13.6476C18.2958 13.8756 18.379 14.0908 18.4723 14.2903C18.5124 14.3759 18.5518 14.4641 18.5919 14.5534C18.8622 15.1564 19.1687 15.84 19.8188 16.2649C20.1136 16.4576 20.4749 16.513 20.7938 16.5619C20.8323 16.5678 20.8765 16.5746 20.9214 16.582C20.7321 16.846 20.4627 17.0969 20.178 17.3621C19.4526 18.0375 18.5499 18.8782 18.9657 20.2194C19.1619 20.8527 19.171 20.9211 18.8555 21.2643C18.8125 21.3112 18.7724 21.3538 18.7349 21.3938C18.4646 21.6815 18.2512 21.9087 18.0745 22.4653C18.0231 22.627 17.9566 22.7019 17.8359 22.8378C17.7393 22.9466 17.619 23.082 17.5081 23.2719C17.3752 23.4993 17.3312 23.7184 17.296 23.8943C17.2613 24.0675 17.2416 24.1544 17.1736 24.2378C17.0189 24.4278 16.7303 24.7036 16.4339 24.8919C16.1586 25.0667 15.9978 25.0906 15.943 25.0873C15.8805 25.0203 15.654 24.7268 15.3118 23.7112C15.2274 23.4607 15.1104 23.2029 14.9972 22.9535C14.7476 22.4039 14.4896 21.8356 14.6151 21.4472C14.63 21.4013 14.6446 21.3566 14.659 21.3128C14.8595 20.7017 15.0488 20.1246 14.6982 19.2843C14.5914 19.0285 14.4214 18.8415 14.2716 18.6765C14.1746 18.5698 14.0648 18.4489 14.0478 18.3792C14.0272 18.2943 14.0278 18.1963 14.0286 18.0828C14.0306 17.7767 14.0336 17.3141 13.5737 16.8834C12.9253 16.2765 12.1693 16.4635 11.6689 16.5872C11.5152 16.6252 11.37 16.6612 11.2413 16.6763C10.4182 16.7727 9.6833 16.4622 9.22451 15.8237C8.74457 15.1559 8.6749 14.2573 9.04275 13.4786C9.22082 13.1018 9.48982 12.799 9.80131 12.4486C9.86933 12.372 9.93801 12.2948 10.0067 12.2157C10.1209 12.084 10.2467 11.9056 10.3796 11.7168C10.5384 11.4915 10.8339 11.072 10.9622 10.9922Z" fill="white" fill-opacity="0.85"/>
<path d="M24.0238 20.7399L23.7419 19.6774C23.6803 19.4454 23.4834 19.2744 23.2451 19.2459C23.0065 19.218 22.7751 19.3373 22.6606 19.5483C22.5963 19.6667 22.5385 19.7921 22.4826 19.9133C22.3886 20.1172 22.2913 20.3282 22.1901 20.4446C22.1333 20.51 21.9873 20.5805 21.8462 20.6486C21.5089 20.8113 21.0468 21.0343 20.8704 21.5969C20.7608 21.9459 20.8017 22.222 20.8316 22.4236C20.8574 22.5983 20.8634 22.6589 20.8166 22.7689L20.8107 22.7825C20.6242 23.2201 20.2772 24.0349 20.7638 24.7275C21.1109 25.2218 21.476 25.3489 21.7596 25.3489C21.815 25.3491 21.8674 25.3442 21.9158 25.3363C22.5135 25.2386 22.9628 24.617 23.3299 23.3797L24.0191 21.057C24.0498 20.9537 24.0514 20.844 24.0238 20.7399ZM22.2066 23.0464C22.0195 23.6772 21.8539 23.9717 21.7583 24.1022C21.7473 24.0881 21.7354 24.0722 21.7226 24.054C21.6106 23.8945 21.778 23.5017 21.8887 23.2417L21.8946 23.228C22.0732 22.8088 22.0255 22.4869 21.9907 22.2518C21.9684 22.1013 21.9604 22.0366 21.9884 21.9477C22.0114 21.8746 22.1486 21.8038 22.3555 21.7039C22.4472 21.6596 22.5481 21.6109 22.65 21.552L22.2066 23.0464Z" fill="white" fill-opacity="0.85"/>
<path d="M15.8234 7.53183L15.7839 7.51801C15.4788 7.41113 15.1442 7.57162 15.0371 7.87695C14.93 8.18234 15.0907 8.51662 15.396 8.62373L15.4355 8.63756C15.4997 8.66006 15.5651 8.67072 15.6295 8.67072C15.8713 8.67072 16.0978 8.51973 16.1824 8.27861C16.2895 7.97322 16.1288 7.63889 15.8234 7.53183Z" fill="white" fill-opacity="0.85"/>
</g>
<defs>
<clipPath id="clip0">
<rect width="30" height="30" fill="white" transform="translate(0 0.567383)"/>
</clipPath>
</defs>
</svg>
